<?xml version="1.0" encoding="utf-8" standalone="no"?>
<!DOCTYPE svg PUBLIC "-//W3C//DTD SVG 1.1//EN"
  "http://www.w3.org/Graphics/SVG/1.1/DTD/svg11.dtd">
<svg xmlns:xlink="http://www.w3.org/1999/xlink" width="637.280312pt" height="495.994688pt" viewBox="0 0 637.280312 495.994688" xmlns="http://www.w3.org/2000/svg" version="1.1">
 <metadata>
  <rdf:RDF xmlns:dc="http://purl.org/dc/elements/1.1/" xmlns:cc="http://creativecommons.org/ns#" xmlns:rdf="http://www.w3.org/1999/02/22-rdf-syntax-ns#">
   <cc:Work>
    <dc:type rdf:resource="http://purl.org/dc/dcmitype/StillImage"/>
    <dc:date>2026-07-10T21:14:38.646928</dc:date>
    <dc:format>image/svg+xml</dc:format>
    <dc:creator>
     <cc:Agent>
      <dc:title>Matplotlib v3.11.0, https://matplotlib.org/</dc:title>
     </cc:Agent>
    </dc:creator>
   </cc:Work>
  </rdf:RDF>
 </metadata>
 <defs>
  <style type="text/css">*{stroke-linejoin: round; stroke-linecap: butt}</style>
 </defs>
 <g id="figure_1">
  <g id="patch_1">
   <path d="M 0 495.994688 
L 637.280312 495.994688 
L 637.280312 0 
L 0 0 
z
" style="fill: #fcfcfb"/>
  </g>
  <g id="axes_1">
   <g id="patch_2">
    <path d="M 289.51875 457.793906 
L 619.56875 457.793906 
L 619.56875 37.922578 
L 289.51875 37.922578 
z
" style="fill: #fcfcfb"/>
   </g>
   <g id="matplotlib.axis_1">
    <g id="xtick_1">
     <g id="line2d_1">
      <path d="M 289.51875 457.793906 
L 289.51875 37.922578 
" clip-path="url(#p1ef0608526)" style="fill: none; stroke: #e5e4df; stroke-width: 0.6; stroke-linecap: square"/>
     </g>
     <g id="line2d_2">
      <defs>
       <path id="m3e04e9d20f" d="M 0 0 
L 0 3.5 
" style="stroke: #0b0b0b; stroke-width: 0.8"/>
      </defs>
      <g>
       <use xlink:href="#m3e04e9d20f" x="289.51875" y="457.793906" style="fill: #0b0b0b; stroke: #0b0b0b; stroke-width: 0.8"/>
      </g>
     </g>
     <g id="text_1">
      <!-- 0 -->
      <g style="fill: #0b0b0b" transform="translate(286.3375 472.391563) scale(0.1 -0.1)">
       <defs>
        <path id="DejaVuSans-13" d="M 2034 4250 
Q 1547 4250 1301 3770 
Q 1056 3291 1056 2328 
Q 1056 1369 1301 889 
Q 1547 409 2034 409 
Q 2525 409 2770 889 
Q 3016 1369 3016 2328 
Q 3016 3291 2770 3770 
Q 2525 4250 2034 4250 
z
M 2034 4750 
Q 2819 4750 3233 4129 
Q 3647 3509 3647 2328 
Q 3647 1150 3233 529 
Q 2819 -91 2034 -91 
Q 1250 -91 836 529 
Q 422 1150 422 2328 
Q 422 3509 836 4129 
Q 1250 4750 2034 4750 
z
" transform="scale(0.015625)"/>
       </defs>
       <use xlink:href="#DejaVuSans-13"/>
      </g>
     </g>
    </g>
    <g id="xtick_2">
     <g id="line2d_3">
      <path d="M 355.52875 457.793906 
L 355.52875 37.922578 
" clip-path="url(#p1ef0608526)" style="fill: none; stroke: #e5e4df; stroke-width: 0.6; stroke-linecap: square"/>
     </g>
     <g id="line2d_4">
      <g>
       <use xlink:href="#m3e04e9d20f" x="355.52875" y="457.793906" style="fill: #0b0b0b; stroke: #0b0b0b; stroke-width: 0.8"/>
      </g>
     </g>
     <g id="text_2">
      <!-- 20 -->
      <g style="fill: #0b0b0b" transform="translate(349.16625 472.391563) scale(0.1 -0.1)">
       <defs>
        <path id="DejaVuSans-15" d="M 1228 531 
L 3431 531 
L 3431 0 
L 469 0 
L 469 531 
Q 828 903 1448 1529 
Q 2069 2156 2228 2338 
Q 2531 2678 2651 2914 
Q 2772 3150 2772 3378 
Q 2772 3750 2511 3984 
Q 2250 4219 1831 4219 
Q 1534 4219 1204 4116 
Q 875 4013 500 3803 
L 500 4441 
Q 881 4594 1212 4672 
Q 1544 4750 1819 4750 
Q 2544 4750 2975 4387 
Q 3406 4025 3406 3419 
Q 3406 3131 3298 2873 
Q 3191 2616 2906 2266 
Q 2828 2175 2409 1742 
Q 1991 1309 1228 531 
z
" transform="scale(0.015625)"/>
       </defs>
       <use xlink:href="#DejaVuSans-15"/>
       <use xlink:href="#DejaVuSans-13" transform="translate(63.625 0)"/>
      </g>
     </g>
    </g>
    <g id="xtick_3">
     <g id="line2d_5">
      <path d="M 421.53875 457.793906 
L 421.53875 37.922578 
" clip-path="url(#p1ef0608526)" style="fill: none; stroke: #e5e4df; stroke-width: 0.6; stroke-linecap: square"/>
     </g>
     <g id="line2d_6">
      <g>
       <use xlink:href="#m3e04e9d20f" x="421.53875" y="457.793906" style="fill: #0b0b0b; stroke: #0b0b0b; stroke-width: 0.8"/>
      </g>
     </g>
     <g id="text_3">
      <!-- 40 -->
      <g style="fill: #0b0b0b" transform="translate(415.17625 472.391563) scale(0.1 -0.1)">
       <defs>
        <path id="DejaVuSans-17" d="M 2419 4116 
L 825 1625 
L 2419 1625 
L 2419 4116 
z
M 2253 4666 
L 3047 4666 
L 3047 1625 
L 3713 1625 
L 3713 1100 
L 3047 1100 
L 3047 0 
L 2419 0 
L 2419 1100 
L 313 1100 
L 313 1709 
L 2253 4666 
z
" transform="scale(0.015625)"/>
       </defs>
       <use xlink:href="#DejaVuSans-17"/>
       <use xlink:href="#DejaVuSans-13" transform="translate(63.625 0)"/>
      </g>
     </g>
    </g>
    <g id="xtick_4">
     <g id="line2d_7">
      <path d="M 487.54875 457.793906 
L 487.54875 37.922578 
" clip-path="url(#p1ef0608526)" style="fill: none; stroke: #e5e4df; stroke-width: 0.6; stroke-linecap: square"/>
     </g>
     <g id="line2d_8">
      <g>
       <use xlink:href="#m3e04e9d20f" x="487.54875" y="457.793906" style="fill: #0b0b0b; stroke: #0b0b0b; stroke-width: 0.8"/>
      </g>
     </g>
     <g id="text_4">
      <!-- 60 -->
      <g style="fill: #0b0b0b" transform="translate(481.18625 472.391563) scale(0.1 -0.1)">
       <defs>
        <path id="DejaVuSans-19" d="M 2113 2584 
Q 1688 2584 1439 2293 
Q 1191 2003 1191 1497 
Q 1191 994 1439 701 
Q 1688 409 2113 409 
Q 2538 409 2786 701 
Q 3034 994 3034 1497 
Q 3034 2003 2786 2293 
Q 2538 2584 2113 2584 
z
M 3366 4563 
L 3366 3988 
Q 3128 4100 2886 4159 
Q 2644 4219 2406 4219 
Q 1781 4219 1451 3797 
Q 1122 3375 1075 2522 
Q 1259 2794 1537 2939 
Q 1816 3084 2150 3084 
Q 2853 3084 3261 2657 
Q 3669 2231 3669 1497 
Q 3669 778 3244 343 
Q 2819 -91 2113 -91 
Q 1303 -91 875 529 
Q 447 1150 447 2328 
Q 447 3434 972 4092 
Q 1497 4750 2381 4750 
Q 2619 4750 2861 4703 
Q 3103 4656 3366 4563 
z
" transform="scale(0.015625)"/>
       </defs>
       <use xlink:href="#DejaVuSans-19"/>
       <use xlink:href="#DejaVuSans-13" transform="translate(63.625 0)"/>
      </g>
     </g>
    </g>
    <g id="xtick_5">
     <g id="line2d_9">
      <path d="M 553.55875 457.793906 
L 553.55875 37.922578 
" clip-path="url(#p1ef0608526)" style="fill: none; stroke: #e5e4df; stroke-width: 0.6; stroke-linecap: square"/>
     </g>
     <g id="line2d_10">
      <g>
       <use xlink:href="#m3e04e9d20f" x="553.55875" y="457.793906" style="fill: #0b0b0b; stroke: #0b0b0b; stroke-width: 0.8"/>
      </g>
     </g>
     <g id="text_5">
      <!-- 80 -->
      <g style="fill: #0b0b0b" transform="translate(547.19625 472.391563) scale(0.1 -0.1)">
       <defs>
        <path id="DejaVuSans-1b" d="M 2034 2216 
Q 1584 2216 1326 1975 
Q 1069 1734 1069 1313 
Q 1069 891 1326 650 
Q 1584 409 2034 409 
Q 2484 409 2743 651 
Q 3003 894 3003 1313 
Q 3003 1734 2745 1975 
Q 2488 2216 2034 2216 
z
M 1403 2484 
Q 997 2584 770 2862 
Q 544 3141 544 3541 
Q 544 4100 942 4425 
Q 1341 4750 2034 4750 
Q 2731 4750 3128 4425 
Q 3525 4100 3525 3541 
Q 3525 3141 3298 2862 
Q 3072 2584 2669 2484 
Q 3125 2378 3379 2068 
Q 3634 1759 3634 1313 
Q 3634 634 3220 271 
Q 2806 -91 2034 -91 
Q 1263 -91 848 271 
Q 434 634 434 1313 
Q 434 1759 690 2068 
Q 947 2378 1403 2484 
z
M 1172 3481 
Q 1172 3119 1398 2916 
Q 1625 2713 2034 2713 
Q 2441 2713 2670 2916 
Q 2900 3119 2900 3481 
Q 2900 3844 2670 4047 
Q 2441 4250 2034 4250 
Q 1625 4250 1398 4047 
Q 1172 3844 1172 3481 
z
" transform="scale(0.015625)"/>
       </defs>
       <use xlink:href="#DejaVuSans-1b"/>
       <use xlink:href="#DejaVuSans-13" transform="translate(63.625 0)"/>
      </g>
     </g>
    </g>
    <g id="xtick_6">
     <g id="line2d_11">
      <path d="M 619.56875 457.793906 
L 619.56875 37.922578 
" clip-path="url(#p1ef0608526)" style="fill: none; stroke: #e5e4df; stroke-width: 0.6; stroke-linecap: square"/>
     </g>
     <g id="line2d_12">
      <g>
       <use xlink:href="#m3e04e9d20f" x="619.56875" y="457.793906" style="fill: #0b0b0b; stroke: #0b0b0b; stroke-width: 0.8"/>
      </g>
     </g>
     <g id="text_6">
      <!-- 100 -->
      <g style="fill: #0b0b0b" transform="translate(610.025 472.391563) scale(0.1 -0.1)">
       <defs>
        <path id="DejaVuSans-14" d="M 794 531 
L 1825 531 
L 1825 4091 
L 703 3866 
L 703 4441 
L 1819 4666 
L 2450 4666 
L 2450 531 
L 3481 531 
L 3481 0 
L 794 0 
L 794 531 
z
" transform="scale(0.015625)"/>
       </defs>
       <use xlink:href="#DejaVuSans-14"/>
       <use xlink:href="#DejaVuSans-13" transform="translate(63.625 0)"/>
       <use xlink:href="#DejaVuSans-13" transform="translate(127.25 0)"/>
      </g>
     </g>
    </g>
    <g id="text_7">
     <!-- Share of codified sources with verified GABRIEL-coded evidence (%) -->
     <g style="fill: #0b0b0b" transform="translate(284.222656 486.392344) scale(0.1 -0.1)">
      <defs>
       <path id="DejaVuSans-36" d="M 3425 4513 
L 3425 3897 
Q 3066 4069 2747 4153 
Q 2428 4238 2131 4238 
Q 1616 4238 1336 4038 
Q 1056 3838 1056 3469 
Q 1056 3159 1242 3001 
Q 1428 2844 1947 2747 
L 2328 2669 
Q 3034 2534 3370 2195 
Q 3706 1856 3706 1288 
Q 3706 609 3251 259 
Q 2797 -91 1919 -91 
Q 1588 -91 1214 -16 
Q 841 59 441 206 
L 441 856 
Q 825 641 1194 531 
Q 1563 422 1919 422 
Q 2459 422 2753 634 
Q 3047 847 3047 1241 
Q 3047 1584 2836 1778 
Q 2625 1972 2144 2069 
L 1759 2144 
Q 1053 2284 737 2584 
Q 422 2884 422 3419 
Q 422 4038 858 4394 
Q 1294 4750 2059 4750 
Q 2388 4750 2728 4690 
Q 3069 4631 3425 4513 
z
" transform="scale(0.015625)"/>
       <path id="DejaVuSans-4b" d="M 3513 2113 
L 3513 0 
L 2938 0 
L 2938 2094 
Q 2938 2591 2744 2837 
Q 2550 3084 2163 3084 
Q 1697 3084 1428 2787 
Q 1159 2491 1159 1978 
L 1159 0 
L 581 0 
L 581 4863 
L 1159 4863 
L 1159 2956 
Q 1366 3272 1645 3428 
Q 1925 3584 2291 3584 
Q 2894 3584 3203 3211 
Q 3513 2838 3513 2113 
z
" transform="scale(0.015625)"/>
       <path id="DejaVuSans-44" d="M 2194 1759 
Q 1497 1759 1228 1600 
Q 959 1441 959 1056 
Q 959 750 1161 570 
Q 1363 391 1709 391 
Q 2188 391 2477 730 
Q 2766 1069 2766 1631 
L 2766 1759 
L 2194 1759 
z
M 3341 1997 
L 3341 0 
L 2766 0 
L 2766 531 
Q 2569 213 2275 61 
Q 1981 -91 1556 -91 
Q 1019 -91 701 211 
Q 384 513 384 1019 
Q 384 1609 779 1909 
Q 1175 2209 1959 2209 
L 2766 2209 
L 2766 2266 
Q 2766 2663 2505 2880 
Q 2244 3097 1772 3097 
Q 1472 3097 1187 3025 
Q 903 2953 641 2809 
L 641 3341 
Q 956 3463 1253 3523 
Q 1550 3584 1831 3584 
Q 2591 3584 2966 3190 
Q 3341 2797 3341 1997 
z
" transform="scale(0.015625)"/>
       <path id="DejaVuSans-55" d="M 2631 2963 
Q 2534 3019 2420 3045 
Q 2306 3072 2169 3072 
Q 1681 3072 1420 2755 
Q 1159 2438 1159 1844 
L 1159 0 
L 581 0 
L 581 3500 
L 1159 3500 
L 1159 2956 
Q 1341 3275 1631 3429 
Q 1922 3584 2338 3584 
Q 2397 3584 2469 3576 
Q 2541 3569 2628 3553 
L 2631 2963 
z
" transform="scale(0.015625)"/>
       <path id="DejaVuSans-48" d="M 3597 1894 
L 3597 1613 
L 953 1613 
Q 991 1019 1311 708 
Q 1631 397 2203 397 
Q 2534 397 2845 478 
Q 3156 559 3463 722 
L 3463 178 
Q 3153 47 2828 -22 
Q 2503 -91 2169 -91 
Q 1331 -91 842 396 
Q 353 884 353 1716 
Q 353 2575 817 3079 
Q 1281 3584 2069 3584 
Q 2775 3584 3186 3129 
Q 3597 2675 3597 1894 
z
M 3022 2063 
Q 3016 2534 2758 2815 
Q 2500 3097 2075 3097 
Q 1594 3097 1305 2825 
Q 1016 2553 972 2059 
L 3022 2063 
z
" transform="scale(0.015625)"/>
       <path id="DejaVuSans-3" transform="scale(0.015625)"/>
       <path id="DejaVuSans-52" d="M 1959 3097 
Q 1497 3097 1228 2736 
Q 959 2375 959 1747 
Q 959 1119 1226 758 
Q 1494 397 1959 397 
Q 2419 397 2687 759 
Q 2956 1122 2956 1747 
Q 2956 2369 2687 2733 
Q 2419 3097 1959 3097 
z
M 1959 3584 
Q 2709 3584 3137 3096 
Q 3566 2609 3566 1747 
Q 3566 888 3137 398 
Q 2709 -91 1959 -91 
Q 1206 -91 779 398 
Q 353 888 353 1747 
Q 353 2609 779 3096 
Q 1206 3584 1959 3584 
z
" transform="scale(0.015625)"/>
       <path id="DejaVuSans-49" d="M 2375 4863 
L 2375 4384 
L 1825 4384 
Q 1516 4384 1395 4259 
Q 1275 4134 1275 3809 
L 1275 3500 
L 2222 3500 
L 2222 3053 
L 1275 3053 
L 1275 0 
L 697 0 
L 697 3053 
L 147 3053 
L 147 3500 
L 697 3500 
L 697 3744 
Q 697 4328 969 4595 
Q 1241 4863 1831 4863 
L 2375 4863 
z
" transform="scale(0.015625)"/>
       <path id="DejaVuSans-46" d="M 3122 3366 
L 3122 2828 
Q 2878 2963 2633 3030 
Q 2388 3097 2138 3097 
Q 1578 3097 1268 2742 
Q 959 2388 959 1747 
Q 959 1106 1268 751 
Q 1578 397 2138 397 
Q 2388 397 2633 464 
Q 2878 531 3122 666 
L 3122 134 
Q 2881 22 2623 -34 
Q 2366 -91 2075 -91 
Q 1284 -91 818 406 
Q 353 903 353 1747 
Q 353 2603 823 3093 
Q 1294 3584 2113 3584 
Q 2378 3584 2631 3529 
Q 2884 3475 3122 3366 
z
" transform="scale(0.015625)"/>
       <path id="DejaVuSans-47" d="M 2906 2969 
L 2906 4863 
L 3481 4863 
L 3481 0 
L 2906 0 
L 2906 525 
Q 2725 213 2448 61 
Q 2172 -91 1784 -91 
Q 1150 -91 751 415 
Q 353 922 353 1747 
Q 353 2572 751 3078 
Q 1150 3584 1784 3584 
Q 2172 3584 2448 3432 
Q 2725 3281 2906 2969 
z
M 947 1747 
Q 947 1113 1208 752 
Q 1469 391 1925 391 
Q 2381 391 2643 752 
Q 2906 1113 2906 1747 
Q 2906 2381 2643 2742 
Q 2381 3103 1925 3103 
Q 1469 3103 1208 2742 
Q 947 2381 947 1747 
z
" transform="scale(0.015625)"/>
       <path id="DejaVuSans-4c" d="M 603 3500 
L 1178 3500 
L 1178 0 
L 603 0 
L 603 3500 
z
M 603 4863 
L 1178 4863 
L 1178 4134 
L 603 4134 
L 603 4863 
z
" transform="scale(0.015625)"/>
       <path id="DejaVuSans-13af" d="M 3431 3500 
L 3431 0 
L 2853 0 
L 2853 3053 
L 1275 3053 
L 1275 0 
L 697 0 
L 697 3053 
L 147 3053 
L 147 3500 
L 697 3500 
L 697 3744 
Q 697 4316 967 4589 
Q 1238 4863 1797 4863 
L 2375 4863 
L 2375 4384 
L 1825 4384 
Q 1516 4384 1395 4259 
Q 1275 4134 1275 3809 
L 1275 3500 
L 3431 3500 
z
M 2853 4856 
L 3431 4856 
L 3431 4128 
L 2853 4128 
L 2853 4856 
z
" transform="scale(0.015625)"/>
       <path id="DejaVuSans-56" d="M 2834 3397 
L 2834 2853 
Q 2591 2978 2328 3040 
Q 2066 3103 1784 3103 
Q 1356 3103 1142 2972 
Q 928 2841 928 2578 
Q 928 2378 1081 2264 
Q 1234 2150 1697 2047 
L 1894 2003 
Q 2506 1872 2764 1633 
Q 3022 1394 3022 966 
Q 3022 478 2636 193 
Q 2250 -91 1575 -91 
Q 1294 -91 989 -36 
Q 684 19 347 128 
L 347 722 
Q 666 556 975 473 
Q 1284 391 1588 391 
Q 1994 391 2212 530 
Q 2431 669 2431 922 
Q 2431 1156 2273 1281 
Q 2116 1406 1581 1522 
L 1381 1569 
Q 847 1681 609 1914 
Q 372 2147 372 2553 
Q 372 3047 722 3315 
Q 1072 3584 1716 3584 
Q 2034 3584 2315 3537 
Q 2597 3491 2834 3397 
z
" transform="scale(0.015625)"/>
       <path id="DejaVuSans-58" d="M 544 1381 
L 544 3500 
L 1119 3500 
L 1119 1403 
Q 1119 906 1312 657 
Q 1506 409 1894 409 
Q 2359 409 2629 706 
Q 2900 1003 2900 1516 
L 2900 3500 
L 3475 3500 
L 3475 0 
L 2900 0 
L 2900 538 
Q 2691 219 2414 64 
Q 2138 -91 1772 -91 
Q 1169 -91 856 284 
Q 544 659 544 1381 
z
M 1991 3584 
L 1991 3584 
z
" transform="scale(0.015625)"/>
       <path id="DejaVuSans-5a" d="M 269 3500 
L 844 3500 
L 1563 769 
L 2278 3500 
L 2956 3500 
L 3675 769 
L 4391 3500 
L 4966 3500 
L 4050 0 
L 3372 0 
L 2619 2869 
L 1863 0 
L 1184 0 
L 269 3500 
z
" transform="scale(0.015625)"/>
       <path id="DejaVuSans-57" d="M 1172 4494 
L 1172 3500 
L 2356 3500 
L 2356 3053 
L 1172 3053 
L 1172 1153 
Q 1172 725 1289 603 
Q 1406 481 1766 481 
L 2356 481 
L 2356 0 
L 1766 0 
Q 1100 0 847 248 
Q 594 497 594 1153 
L 594 3053 
L 172 3053 
L 172 3500 
L 594 3500 
L 594 4494 
L 1172 4494 
z
" transform="scale(0.015625)"/>
       <path id="DejaVuSans-59" d="M 191 3500 
L 800 3500 
L 1894 563 
L 2988 3500 
L 3597 3500 
L 2284 0 
L 1503 0 
L 191 3500 
z
" transform="scale(0.015625)"/>
       <path id="DejaVuSans-2a" d="M 3809 666 
L 3809 1919 
L 2778 1919 
L 2778 2438 
L 4434 2438 
L 4434 434 
Q 4069 175 3628 42 
Q 3188 -91 2688 -91 
Q 1594 -91 976 548 
Q 359 1188 359 2328 
Q 359 3472 976 4111 
Q 1594 4750 2688 4750 
Q 3144 4750 3555 4637 
Q 3966 4525 4313 4306 
L 4313 3634 
Q 3963 3931 3569 4081 
Q 3175 4231 2741 4231 
Q 1884 4231 1454 3753 
Q 1025 3275 1025 2328 
Q 1025 1384 1454 906 
Q 1884 428 2741 428 
Q 3075 428 3337 486 
Q 3600 544 3809 666 
z
" transform="scale(0.015625)"/>
       <path id="DejaVuSans-24" d="M 2188 4044 
L 1331 1722 
L 3047 1722 
L 2188 4044 
z
M 1831 4666 
L 2547 4666 
L 4325 0 
L 3669 0 
L 3244 1197 
L 1141 1197 
L 716 0 
L 50 0 
L 1831 4666 
z
" transform="scale(0.015625)"/>
       <path id="DejaVuSans-25" d="M 1259 2228 
L 1259 519 
L 2272 519 
Q 2781 519 3026 730 
Q 3272 941 3272 1375 
Q 3272 1813 3026 2020 
Q 2781 2228 2272 2228 
L 1259 2228 
z
M 1259 4147 
L 1259 2741 
L 2194 2741 
Q 2656 2741 2882 2914 
Q 3109 3088 3109 3444 
Q 3109 3797 2882 3972 
Q 2656 4147 2194 4147 
L 1259 4147 
z
M 628 4666 
L 2241 4666 
Q 2963 4666 3353 4366 
Q 3744 4066 3744 3513 
Q 3744 3084 3544 2831 
Q 3344 2578 2956 2516 
Q 3422 2416 3680 2098 
Q 3938 1781 3938 1306 
Q 3938 681 3513 340 
Q 3088 0 2303 0 
L 628 0 
L 628 4666 
z
" transform="scale(0.015625)"/>
       <path id="DejaVuSans-35" d="M 2841 2188 
Q 3044 2119 3236 1894 
Q 3428 1669 3622 1275 
L 4263 0 
L 3584 0 
L 2988 1197 
Q 2756 1666 2539 1819 
Q 2322 1972 1947 1972 
L 1259 1972 
L 1259 0 
L 628 0 
L 628 4666 
L 2053 4666 
Q 2853 4666 3247 4331 
Q 3641 3997 3641 3322 
Q 3641 2881 3436 2590 
Q 3231 2300 2841 2188 
z
M 1259 4147 
L 1259 2491 
L 2053 2491 
Q 2509 2491 2742 2702 
Q 2975 2913 2975 3322 
Q 2975 3731 2742 3939 
Q 2509 4147 2053 4147 
L 1259 4147 
z
" transform="scale(0.015625)"/>
       <path id="DejaVuSans-2c" d="M 628 4666 
L 1259 4666 
L 1259 0 
L 628 0 
L 628 4666 
z
" transform="scale(0.015625)"/>
       <path id="DejaVuSans-28" d="M 628 4666 
L 3578 4666 
L 3578 4134 
L 1259 4134 
L 1259 2753 
L 3481 2753 
L 3481 2222 
L 1259 2222 
L 1259 531 
L 3634 531 
L 3634 0 
L 628 0 
L 628 4666 
z
" transform="scale(0.015625)"/>
       <path id="DejaVuSans-2f" d="M 628 4666 
L 1259 4666 
L 1259 531 
L 3531 531 
L 3531 0 
L 628 0 
L 628 4666 
z
" transform="scale(0.015625)"/>
       <path id="DejaVuSans-10" d="M 313 2009 
L 1997 2009 
L 1997 1497 
L 313 1497 
L 313 2009 
z
" transform="scale(0.015625)"/>
       <path id="DejaVuSans-51" d="M 3513 2113 
L 3513 0 
L 2938 0 
L 2938 2094 
Q 2938 2591 2744 2837 
Q 2550 3084 2163 3084 
Q 1697 3084 1428 2787 
Q 1159 2491 1159 1978 
L 1159 0 
L 581 0 
L 581 3500 
L 1159 3500 
L 1159 2956 
Q 1366 3272 1645 3428 
Q 1925 3584 2291 3584 
Q 2894 3584 3203 3211 
Q 3513 2838 3513 2113 
z
" transform="scale(0.015625)"/>
       <path id="DejaVuSans-b" d="M 1984 4856 
Q 1566 4138 1362 3434 
Q 1159 2731 1159 2009 
Q 1159 1288 1364 580 
Q 1569 -128 1984 -844 
L 1484 -844 
Q 1016 -109 783 600 
Q 550 1309 550 2009 
Q 550 2706 781 3412 
Q 1013 4119 1484 4856 
L 1984 4856 
z
" transform="scale(0.015625)"/>
       <path id="DejaVuSans-8" d="M 4653 2053 
Q 4381 2053 4226 1822 
Q 4072 1591 4072 1178 
Q 4072 772 4226 539 
Q 4381 306 4653 306 
Q 4919 306 5073 539 
Q 5228 772 5228 1178 
Q 5228 1588 5073 1820 
Q 4919 2053 4653 2053 
z
M 4653 2450 
Q 5147 2450 5437 2106 
Q 5728 1763 5728 1178 
Q 5728 594 5436 251 
Q 5144 -91 4653 -91 
Q 4153 -91 3862 251 
Q 3572 594 3572 1178 
Q 3572 1766 3864 2108 
Q 4156 2450 4653 2450 
z
M 1428 4353 
Q 1159 4353 1004 4120 
Q 850 3888 850 3481 
Q 850 3069 1003 2837 
Q 1156 2606 1428 2606 
Q 1700 2606 1854 2837 
Q 2009 3069 2009 3481 
Q 2009 3884 1853 4118 
Q 1697 4353 1428 4353 
z
M 4250 4750 
L 4750 4750 
L 1831 -91 
L 1331 -91 
L 4250 4750 
z
M 1428 4750 
Q 1922 4750 2215 4408 
Q 2509 4066 2509 3481 
Q 2509 2891 2217 2550 
Q 1925 2209 1428 2209 
Q 931 2209 642 2551 
Q 353 2894 353 3481 
Q 353 4063 643 4406 
Q 934 4750 1428 4750 
z
" transform="scale(0.015625)"/>
       <path id="DejaVuSans-c" d="M 513 4856 
L 1013 4856 
Q 1481 4119 1714 3412 
Q 1947 2706 1947 2009 
Q 1947 1309 1714 600 
Q 1481 -109 1013 -844 
L 513 -844 
Q 928 -128 1133 580 
Q 1338 1288 1338 2009 
Q 1338 2731 1133 3434 
Q 928 4138 513 4856 
z
" transform="scale(0.015625)"/>
      </defs>
      <use xlink:href="#DejaVuSans-36"/>
      <use xlink:href="#DejaVuSans-4b" transform="translate(63.484375 0)"/>
      <use xlink:href="#DejaVuSans-44" transform="translate(126.859375 0)"/>
      <use xlink:href="#DejaVuSans-55" transform="translate(188.140625 0)"/>
      <use xlink:href="#DejaVuSans-48" transform="translate(227.046875 0)"/>
      <use xlink:href="#DejaVuSans-3" transform="translate(288.578125 0)"/>
      <use xlink:href="#DejaVuSans-52" transform="translate(320.359375 0)"/>
      <use xlink:href="#DejaVuSans-49" transform="translate(381.546875 0)"/>
      <use xlink:href="#DejaVuSans-3" transform="translate(416.75 0)"/>
      <use xlink:href="#DejaVuSans-46" transform="translate(448.53125 0)"/>
      <use xlink:href="#DejaVuSans-52" transform="translate(503.515625 0)"/>
      <use xlink:href="#DejaVuSans-47" transform="translate(564.703125 0)"/>
      <use xlink:href="#DejaVuSans-4c" transform="translate(628.1875 0)"/>
      <use xlink:href="#DejaVuSans-13af" transform="translate(655.96875 0)"/>
      <use xlink:href="#DejaVuSans-48" transform="translate(718.953125 0)"/>
      <use xlink:href="#DejaVuSans-47" transform="translate(780.484375 0)"/>
      <use xlink:href="#DejaVuSans-3" transform="translate(843.96875 0)"/>
      <use xlink:href="#DejaVuSans-56" transform="translate(875.75 0)"/>
      <use xlink:href="#DejaVuSans-52" transform="translate(927.84375 0)"/>
      <use xlink:href="#DejaVuSans-58" transform="translate(989.03125 0)"/>
      <use xlink:href="#DejaVuSans-55" transform="translate(1052.40625 0)"/>
      <use xlink:href="#DejaVuSans-46" transform="translate(1091.3125 0)"/>
      <use xlink:href="#DejaVuSans-48" transform="translate(1146.296875 0)"/>
      <use xlink:href="#DejaVuSans-56" transform="translate(1207.828125 0)"/>
      <use xlink:href="#DejaVuSans-3" transform="translate(1259.921875 0)"/>
      <use xlink:href="#DejaVuSans-5a" transform="translate(1291.703125 0)"/>
      <use xlink:href="#DejaVuSans-4c" transform="translate(1373.484375 0)"/>
      <use xlink:href="#DejaVuSans-57" transform="translate(1401.265625 0)"/>
      <use xlink:href="#DejaVuSans-4b" transform="translate(1440.46875 0)"/>
      <use xlink:href="#DejaVuSans-3" transform="translate(1503.84375 0)"/>
      <use xlink:href="#DejaVuSans-59" transform="translate(1535.625 0)"/>
      <use xlink:href="#DejaVuSans-48" transform="translate(1594.8125 0)"/>
      <use xlink:href="#DejaVuSans-55" transform="translate(1656.34375 0)"/>
      <use xlink:href="#DejaVuSans-4c" transform="translate(1697.453125 0)"/>
      <use xlink:href="#DejaVuSans-13af" transform="translate(1725.234375 0)"/>
      <use xlink:href="#DejaVuSans-48" transform="translate(1788.21875 0)"/>
      <use xlink:href="#DejaVuSans-47" transform="translate(1849.75 0)"/>
      <use xlink:href="#DejaVuSans-3" transform="translate(1913.234375 0)"/>
      <use xlink:href="#DejaVuSans-2a" transform="translate(1945.015625 0)"/>
      <use xlink:href="#DejaVuSans-24" transform="translate(2022.5 0)"/>
      <use xlink:href="#DejaVuSans-25" transform="translate(2090.90625 0)"/>
      <use xlink:href="#DejaVuSans-35" transform="translate(2159.515625 0)"/>
      <use xlink:href="#DejaVuSans-2c" transform="translate(2229 0)"/>
      <use xlink:href="#DejaVuSans-28" transform="translate(2258.5 0)"/>
      <use xlink:href="#DejaVuSans-2f" transform="translate(2321.6875 0)"/>
      <use xlink:href="#DejaVuSans-10" transform="translate(2375.65625 0)"/>
      <use xlink:href="#DejaVuSans-46" transform="translate(2411.734375 0)"/>
      <use xlink:href="#DejaVuSans-52" transform="translate(2466.71875 0)"/>
      <use xlink:href="#DejaVuSans-47" transform="translate(2527.90625 0)"/>
      <use xlink:href="#DejaVuSans-48" transform="translate(2591.390625 0)"/>
      <use xlink:href="#DejaVuSans-47" transform="translate(2652.921875 0)"/>
      <use xlink:href="#DejaVuSans-3" transform="translate(2716.40625 0)"/>
      <use xlink:href="#DejaVuSans-48" transform="translate(2748.1875 0)"/>
      <use xlink:href="#DejaVuSans-59" transform="translate(2809.71875 0)"/>
      <use xlink:href="#DejaVuSans-4c" transform="translate(2868.90625 0)"/>
      <use xlink:href="#DejaVuSans-47" transform="translate(2896.6875 0)"/>
      <use xlink:href="#DejaVuSans-48" transform="translate(2960.171875 0)"/>
      <use xlink:href="#DejaVuSans-51" transform="translate(3021.703125 0)"/>
      <use xlink:href="#DejaVuSans-46" transform="translate(3085.078125 0)"/>
      <use xlink:href="#DejaVuSans-48" transform="translate(3140.0625 0)"/>
      <use xlink:href="#DejaVuSans-3" transform="translate(3201.59375 0)"/>
      <use xlink:href="#DejaVuSans-b" transform="translate(3233.375 0)"/>
      <use xlink:href="#DejaVuSans-8" transform="translate(3272.390625 0)"/>
      <use xlink:href="#DejaVuSans-c" transform="translate(3367.40625 0)"/>
     </g>
    </g>
   </g>
   <g id="matplotlib.axis_2">
    <g id="ytick_1">
     <g id="line2d_13">
      <path d="M 289.51875 71.688454 
L 619.56875 71.688454 
" clip-path="url(#p1ef0608526)" style="fill: none; stroke: #e5e4df; stroke-width: 0.6; stroke-linecap: square"/>
     </g>
     <g id="line2d_14">
      <defs>
       <path id="mf456b19b25" d="M 0 0 
L -3.5 0 
" style="stroke: #0b0b0b; stroke-width: 0.8"/>
      </defs>
      <g>
       <use xlink:href="#mf456b19b25" x="289.51875" y="71.688454" style="fill: #0b0b0b; stroke: #0b0b0b; stroke-width: 0.8"/>
      </g>
     </g>
     <g id="text_8">
      <!-- Peer / comparator wage comparison -->
      <g style="fill: #0b0b0b" transform="translate(100.926562 75.487673) scale(0.1 -0.1)">
       <defs>
        <path id="DejaVuSans-33" d="M 1259 4147 
L 1259 2394 
L 2053 2394 
Q 2494 2394 2734 2622 
Q 2975 2850 2975 3272 
Q 2975 3691 2734 3919 
Q 2494 4147 2053 4147 
L 1259 4147 
z
M 628 4666 
L 2053 4666 
Q 2838 4666 3239 4311 
Q 3641 3956 3641 3272 
Q 3641 2581 3239 2228 
Q 2838 1875 2053 1875 
L 1259 1875 
L 1259 0 
L 628 0 
L 628 4666 
z
" transform="scale(0.015625)"/>
        <path id="DejaVuSans-12" d="M 1625 4666 
L 2156 4666 
L 531 -594 
L 0 -594 
L 1625 4666 
z
" transform="scale(0.015625)"/>
        <path id="DejaVuSans-50" d="M 3328 2828 
Q 3544 3216 3844 3400 
Q 4144 3584 4550 3584 
Q 5097 3584 5394 3201 
Q 5691 2819 5691 2113 
L 5691 0 
L 5113 0 
L 5113 2094 
Q 5113 2597 4934 2840 
Q 4756 3084 4391 3084 
Q 3944 3084 3684 2787 
Q 3425 2491 3425 1978 
L 3425 0 
L 2847 0 
L 2847 2094 
Q 2847 2600 2669 2842 
Q 2491 3084 2119 3084 
Q 1678 3084 1418 2786 
Q 1159 2488 1159 1978 
L 1159 0 
L 581 0 
L 581 3500 
L 1159 3500 
L 1159 2956 
Q 1356 3278 1631 3431 
Q 1906 3584 2284 3584 
Q 2666 3584 2933 3390 
Q 3200 3197 3328 2828 
z
" transform="scale(0.015625)"/>
        <path id="DejaVuSans-53" d="M 1159 525 
L 1159 -1331 
L 581 -1331 
L 581 3500 
L 1159 3500 
L 1159 2969 
Q 1341 3281 1617 3432 
Q 1894 3584 2278 3584 
Q 2916 3584 3314 3078 
Q 3713 2572 3713 1747 
Q 3713 922 3314 415 
Q 2916 -91 2278 -91 
Q 1894 -91 1617 61 
Q 1341 213 1159 525 
z
M 3116 1747 
Q 3116 2381 2855 2742 
Q 2594 3103 2138 3103 
Q 1681 3103 1420 2742 
Q 1159 2381 1159 1747 
Q 1159 1113 1420 752 
Q 1681 391 2138 391 
Q 2594 391 2855 752 
Q 3116 1113 3116 1747 
z
" transform="scale(0.015625)"/>
        <path id="DejaVuSans-4a" d="M 2906 1791 
Q 2906 2416 2648 2759 
Q 2391 3103 1925 3103 
Q 1463 3103 1205 2759 
Q 947 2416 947 1791 
Q 947 1169 1205 825 
Q 1463 481 1925 481 
Q 2391 481 2648 825 
Q 2906 1169 2906 1791 
z
M 3481 434 
Q 3481 -459 3084 -895 
Q 2688 -1331 1869 -1331 
Q 1566 -1331 1297 -1286 
Q 1028 -1241 775 -1147 
L 775 -588 
Q 1028 -725 1275 -790 
Q 1522 -856 1778 -856 
Q 2344 -856 2625 -561 
Q 2906 -266 2906 331 
L 2906 616 
Q 2728 306 2450 153 
Q 2172 0 1784 0 
Q 1141 0 747 490 
Q 353 981 353 1791 
Q 353 2603 747 3093 
Q 1141 3584 1784 3584 
Q 2172 3584 2450 3431 
Q 2728 3278 2906 2969 
L 2906 3500 
L 3481 3500 
L 3481 434 
z
" transform="scale(0.015625)"/>
       </defs>
       <use xlink:href="#DejaVuSans-33"/>
       <use xlink:href="#DejaVuSans-48" transform="translate(56.734375 0)"/>
       <use xlink:href="#DejaVuSans-48" transform="translate(118.265625 0)"/>
       <use xlink:href="#DejaVuSans-55" transform="translate(179.796875 0)"/>
       <use xlink:href="#DejaVuSans-3" transform="translate(220.90625 0)"/>
       <use xlink:href="#DejaVuSans-12" transform="translate(252.6875 0)"/>
       <use xlink:href="#DejaVuSans-3" transform="translate(286.375 0)"/>
       <use xlink:href="#DejaVuSans-46" transform="translate(318.15625 0)"/>
       <use xlink:href="#DejaVuSans-52" transform="translate(373.140625 0)"/>
       <use xlink:href="#DejaVuSans-50" transform="translate(434.328125 0)"/>
       <use xlink:href="#DejaVuSans-53" transform="translate(531.734375 0)"/>
       <use xlink:href="#DejaVuSans-44" transform="translate(595.21875 0)"/>
       <use xlink:href="#DejaVuSans-55" transform="translate(656.5 0)"/>
       <use xlink:href="#DejaVuSans-44" transform="translate(697.609375 0)"/>
       <use xlink:href="#DejaVuSans-57" transform="translate(758.890625 0)"/>
       <use xlink:href="#DejaVuSans-52" transform="translate(798.09375 0)"/>
       <use xlink:href="#DejaVuSans-55" transform="translate(859.28125 0)"/>
       <use xlink:href="#DejaVuSans-3" transform="translate(900.390625 0)"/>
       <use xlink:href="#DejaVuSans-5a" transform="translate(932.171875 0)"/>
       <use xlink:href="#DejaVuSans-44" transform="translate(1013.953125 0)"/>
       <use xlink:href="#DejaVuSans-4a" transform="translate(1075.234375 0)"/>
       <use xlink:href="#DejaVuSans-48" transform="translate(1138.71875 0)"/>
       <use xlink:href="#DejaVuSans-3" transform="translate(1200.25 0)"/>
       <use xlink:href="#DejaVuSans-46" transform="translate(1232.03125 0)"/>
       <use xlink:href="#DejaVuSans-52" transform="translate(1287.015625 0)"/>
       <use xlink:href="#DejaVuSans-50" transform="translate(1348.203125 0)"/>
       <use xlink:href="#DejaVuSans-53" transform="translate(1445.609375 0)"/>
       <use xlink:href="#DejaVuSans-44" transform="translate(1509.09375 0)"/>
       <use xlink:href="#DejaVuSans-55" transform="translate(1570.375 0)"/>
       <use xlink:href="#DejaVuSans-4c" transform="translate(1611.484375 0)"/>
       <use xlink:href="#DejaVuSans-56" transform="translate(1639.265625 0)"/>
       <use xlink:href="#DejaVuSans-52" transform="translate(1691.359375 0)"/>
       <use xlink:href="#DejaVuSans-51" transform="translate(1752.546875 0)"/>
      </g>
     </g>
    </g>
    <g id="ytick_2">
     <g id="line2d_15">
      <path d="M 289.51875 110.837296 
L 619.56875 110.837296 
" clip-path="url(#p1ef0608526)" style="fill: none; stroke: #e5e4df; stroke-width: 0.6; stroke-linecap: square"/>
     </g>
     <g id="line2d_16">
      <g>
       <use xlink:href="#mf456b19b25" x="289.51875" y="110.837296" style="fill: #0b0b0b; stroke: #0b0b0b; stroke-width: 0.8"/>
      </g>
     </g>
     <g id="text_9">
      <!-- Interest arbitration / formal impasse backstop -->
      <g style="fill: #0b0b0b" transform="translate(52.89375 114.636515) scale(0.1 -0.1)">
       <defs>
        <path id="DejaVuSans-45" d="M 3116 1747 
Q 3116 2381 2855 2742 
Q 2594 3103 2138 3103 
Q 1681 3103 1420 2742 
Q 1159 2381 1159 1747 
Q 1159 1113 1420 752 
Q 1681 391 2138 391 
Q 2594 391 2855 752 
Q 3116 1113 3116 1747 
z
M 1159 2969 
Q 1341 3281 1617 3432 
Q 1894 3584 2278 3584 
Q 2916 3584 3314 3078 
Q 3713 2572 3713 1747 
Q 3713 922 3314 415 
Q 2916 -91 2278 -91 
Q 1894 -91 1617 61 
Q 1341 213 1159 525 
L 1159 0 
L 581 0 
L 581 4863 
L 1159 4863 
L 1159 2969 
z
" transform="scale(0.015625)"/>
        <path id="DejaVuSans-4f" d="M 603 4863 
L 1178 4863 
L 1178 0 
L 603 0 
L 603 4863 
z
" transform="scale(0.015625)"/>
        <path id="DejaVuSans-4e" d="M 581 4863 
L 1159 4863 
L 1159 1991 
L 2875 3500 
L 3609 3500 
L 1753 1863 
L 3688 0 
L 2938 0 
L 1159 1709 
L 1159 0 
L 581 0 
L 581 4863 
z
" transform="scale(0.015625)"/>
       </defs>
       <use xlink:href="#DejaVuSans-2c"/>
       <use xlink:href="#DejaVuSans-51" transform="translate(29.5 0)"/>
       <use xlink:href="#DejaVuSans-57" transform="translate(92.875 0)"/>
       <use xlink:href="#DejaVuSans-48" transform="translate(132.078125 0)"/>
       <use xlink:href="#DejaVuSans-55" transform="translate(193.609375 0)"/>
       <use xlink:href="#DejaVuSans-48" transform="translate(232.515625 0)"/>
       <use xlink:href="#DejaVuSans-56" transform="translate(294.046875 0)"/>
       <use xlink:href="#DejaVuSans-57" transform="translate(346.140625 0)"/>
       <use xlink:href="#DejaVuSans-3" transform="translate(385.34375 0)"/>
       <use xlink:href="#DejaVuSans-44" transform="translate(417.125 0)"/>
       <use xlink:href="#DejaVuSans-55" transform="translate(478.40625 0)"/>
       <use xlink:href="#DejaVuSans-45" transform="translate(519.515625 0)"/>
       <use xlink:href="#DejaVuSans-4c" transform="translate(583 0)"/>
       <use xlink:href="#DejaVuSans-57" transform="translate(610.78125 0)"/>
       <use xlink:href="#DejaVuSans-55" transform="translate(649.984375 0)"/>
       <use xlink:href="#DejaVuSans-44" transform="translate(691.09375 0)"/>
       <use xlink:href="#DejaVuSans-57" transform="translate(752.375 0)"/>
       <use xlink:href="#DejaVuSans-4c" transform="translate(791.578125 0)"/>
       <use xlink:href="#DejaVuSans-52" transform="translate(819.359375 0)"/>
       <use xlink:href="#DejaVuSans-51" transform="translate(880.546875 0)"/>
       <use xlink:href="#DejaVuSans-3" transform="translate(943.921875 0)"/>
       <use xlink:href="#DejaVuSans-12" transform="translate(975.703125 0)"/>
       <use xlink:href="#DejaVuSans-3" transform="translate(1009.390625 0)"/>
       <use xlink:href="#DejaVuSans-49" transform="translate(1041.171875 0)"/>
       <use xlink:href="#DejaVuSans-52" transform="translate(1076.375 0)"/>
       <use xlink:href="#DejaVuSans-55" transform="translate(1137.5625 0)"/>
       <use xlink:href="#DejaVuSans-50" transform="translate(1176.921875 0)"/>
       <use xlink:href="#DejaVuSans-44" transform="translate(1274.328125 0)"/>
       <use xlink:href="#DejaVuSans-4f" transform="translate(1335.609375 0)"/>
       <use xlink:href="#DejaVuSans-3" transform="translate(1363.390625 0)"/>
       <use xlink:href="#DejaVuSans-4c" transform="translate(1395.171875 0)"/>
       <use xlink:href="#DejaVuSans-50" transform="translate(1422.953125 0)"/>
       <use xlink:href="#DejaVuSans-53" transform="translate(1520.359375 0)"/>
       <use xlink:href="#DejaVuSans-44" transform="translate(1583.84375 0)"/>
       <use xlink:href="#DejaVuSans-56" transform="translate(1645.125 0)"/>
       <use xlink:href="#DejaVuSans-56" transform="translate(1697.21875 0)"/>
       <use xlink:href="#DejaVuSans-48" transform="translate(1749.3125 0)"/>
       <use xlink:href="#DejaVuSans-3" transform="translate(1810.84375 0)"/>
       <use xlink:href="#DejaVuSans-45" transform="translate(1842.625 0)"/>
       <use xlink:href="#DejaVuSans-44" transform="translate(1906.109375 0)"/>
       <use xlink:href="#DejaVuSans-46" transform="translate(1967.390625 0)"/>
       <use xlink:href="#DejaVuSans-4e" transform="translate(2022.375 0)"/>
       <use xlink:href="#DejaVuSans-56" transform="translate(2080.28125 0)"/>
       <use xlink:href="#DejaVuSans-57" transform="translate(2132.375 0)"/>
       <use xlink:href="#DejaVuSans-52" transform="translate(2171.578125 0)"/>
       <use xlink:href="#DejaVuSans-53" transform="translate(2232.765625 0)"/>
      </g>
     </g>
    </g>
    <g id="ytick_3">
     <g id="line2d_17">
      <path d="M 289.51875 149.986138 
L 619.56875 149.986138 
" clip-path="url(#p1ef0608526)" style="fill: none; stroke: #e5e4df; stroke-width: 0.6; stroke-linecap: square"/>
     </g>
     <g id="line2d_18">
      <g>
       <use xlink:href="#mf456b19b25" x="289.51875" y="149.986138" style="fill: #0b0b0b; stroke: #0b0b0b; stroke-width: 0.8"/>
      </g>
     </g>
     <g id="text_10">
      <!-- Grievance or contract-interpretation arbitration -->
      <g style="fill: #0b0b0b" transform="translate(45.2125 153.785356) scale(0.1 -0.1)">
       <use xlink:href="#DejaVuSans-2a"/>
       <use xlink:href="#DejaVuSans-55" transform="translate(77.484375 0)"/>
       <use xlink:href="#DejaVuSans-4c" transform="translate(118.59375 0)"/>
       <use xlink:href="#DejaVuSans-48" transform="translate(146.375 0)"/>
       <use xlink:href="#DejaVuSans-59" transform="translate(207.90625 0)"/>
       <use xlink:href="#DejaVuSans-44" transform="translate(267.09375 0)"/>
       <use xlink:href="#DejaVuSans-51" transform="translate(328.375 0)"/>
       <use xlink:href="#DejaVuSans-46" transform="translate(391.75 0)"/>
       <use xlink:href="#DejaVuSans-48" transform="translate(446.734375 0)"/>
       <use xlink:href="#DejaVuSans-3" transform="translate(508.265625 0)"/>
       <use xlink:href="#DejaVuSans-52" transform="translate(540.046875 0)"/>
       <use xlink:href="#DejaVuSans-55" transform="translate(601.234375 0)"/>
       <use xlink:href="#DejaVuSans-3" transform="translate(642.34375 0)"/>
       <use xlink:href="#DejaVuSans-46" transform="translate(674.125 0)"/>
       <use xlink:href="#DejaVuSans-52" transform="translate(729.109375 0)"/>
       <use xlink:href="#DejaVuSans-51" transform="translate(790.296875 0)"/>
       <use xlink:href="#DejaVuSans-57" transform="translate(853.671875 0)"/>
       <use xlink:href="#DejaVuSans-55" transform="translate(892.875 0)"/>
       <use xlink:href="#DejaVuSans-44" transform="translate(933.984375 0)"/>
       <use xlink:href="#DejaVuSans-46" transform="translate(995.265625 0)"/>
       <use xlink:href="#DejaVuSans-57" transform="translate(1050.25 0)"/>
       <use xlink:href="#DejaVuSans-10" transform="translate(1089.453125 0)"/>
       <use xlink:href="#DejaVuSans-4c" transform="translate(1125.53125 0)"/>
       <use xlink:href="#DejaVuSans-51" transform="translate(1153.3125 0)"/>
       <use xlink:href="#DejaVuSans-57" transform="translate(1216.6875 0)"/>
       <use xlink:href="#DejaVuSans-48" transform="translate(1255.890625 0)"/>
       <use xlink:href="#DejaVuSans-55" transform="translate(1317.421875 0)"/>
       <use xlink:href="#DejaVuSans-53" transform="translate(1358.53125 0)"/>
       <use xlink:href="#DejaVuSans-55" transform="translate(1422.015625 0)"/>
       <use xlink:href="#DejaVuSans-48" transform="translate(1460.921875 0)"/>
       <use xlink:href="#DejaVuSans-57" transform="translate(1522.453125 0)"/>
       <use xlink:href="#DejaVuSans-44" transform="translate(1561.65625 0)"/>
       <use xlink:href="#DejaVuSans-57" transform="translate(1622.9375 0)"/>
       <use xlink:href="#DejaVuSans-4c" transform="translate(1662.140625 0)"/>
       <use xlink:href="#DejaVuSans-52" transform="translate(1689.921875 0)"/>
       <use xlink:href="#DejaVuSans-51" transform="translate(1751.109375 0)"/>
       <use xlink:href="#DejaVuSans-3" transform="translate(1814.484375 0)"/>
       <use xlink:href="#DejaVuSans-44" transform="translate(1846.265625 0)"/>
       <use xlink:href="#DejaVuSans-55" transform="translate(1907.546875 0)"/>
       <use xlink:href="#DejaVuSans-45" transform="translate(1948.65625 0)"/>
       <use xlink:href="#DejaVuSans-4c" transform="translate(2012.140625 0)"/>
       <use xlink:href="#DejaVuSans-57" transform="translate(2039.921875 0)"/>
       <use xlink:href="#DejaVuSans-55" transform="translate(2079.125 0)"/>
       <use xlink:href="#DejaVuSans-44" transform="translate(2120.234375 0)"/>
       <use xlink:href="#DejaVuSans-57" transform="translate(2181.515625 0)"/>
       <use xlink:href="#DejaVuSans-4c" transform="translate(2220.71875 0)"/>
       <use xlink:href="#DejaVuSans-52" transform="translate(2248.5 0)"/>
       <use xlink:href="#DejaVuSans-51" transform="translate(2309.6875 0)"/>
      </g>
     </g>
    </g>
    <g id="ytick_4">
     <g id="line2d_19">
      <path d="M 289.51875 189.13498 
L 619.56875 189.13498 
" clip-path="url(#p1ef0608526)" style="fill: none; stroke: #e5e4df; stroke-width: 0.6; stroke-linecap: square"/>
     </g>
     <g id="line2d_20">
      <g>
       <use xlink:href="#mf456b19b25" x="289.51875" y="189.13498" style="fill: #0b0b0b; stroke: #0b0b0b; stroke-width: 0.8"/>
      </g>
     </g>
     <g id="text_11">
      <!-- Staffing shortage, recruitment, or retention -->
      <g style="fill: #0b0b0b" transform="translate(65.692187 192.934198) scale(0.1 -0.1)">
       <defs>
        <path id="DejaVuSans-13b1" d="M 2375 4863 
L 2375 4384 
L 1825 4384 
Q 1516 4384 1394 4259 
Q 1275 4134 1275 3809 
L 1275 3500 
L 2853 3500 
L 2853 3744 
Q 2853 4328 3125 4594 
Q 3213 4681 3334 4741 
Q 3578 4863 3988 4863 
L 4531 4863 
L 4531 4384 
L 3981 4384 
Q 3672 4384 3551 4259 
Q 3431 4134 3431 3809 
L 3431 3500 
L 5588 3500 
L 5588 0 
L 5009 0 
L 5009 3053 
L 3431 3053 
L 3431 0 
L 2853 0 
L 2853 3053 
L 1275 3053 
L 1275 0 
L 697 0 
L 697 3053 
L 147 3053 
L 147 3500 
L 697 3500 
L 697 3744 
Q 697 4328 969 4595 
Q 1241 4863 1831 4863 
L 2375 4863 
z
M 5009 4856 
L 5588 4856 
L 5588 4128 
L 5009 4128 
L 5009 4856 
z
" transform="scale(0.015625)"/>
        <path id="DejaVuSans-f" d="M 750 794 
L 1409 794 
L 1409 256 
L 897 -744 
L 494 -744 
L 750 256 
L 750 794 
z
" transform="scale(0.015625)"/>
       </defs>
       <use xlink:href="#DejaVuSans-36"/>
       <use xlink:href="#DejaVuSans-57" transform="translate(63.484375 0)"/>
       <use xlink:href="#DejaVuSans-44" transform="translate(102.6875 0)"/>
       <use xlink:href="#DejaVuSans-13b1" transform="translate(163.96875 0)"/>
       <use xlink:href="#DejaVuSans-51" transform="translate(260.65625 0)"/>
       <use xlink:href="#DejaVuSans-4a" transform="translate(324.03125 0)"/>
       <use xlink:href="#DejaVuSans-3" transform="translate(387.515625 0)"/>
       <use xlink:href="#DejaVuSans-56" transform="translate(419.296875 0)"/>
       <use xlink:href="#DejaVuSans-4b" transform="translate(471.390625 0)"/>
       <use xlink:href="#DejaVuSans-52" transform="translate(534.765625 0)"/>
       <use xlink:href="#DejaVuSans-55" transform="translate(595.953125 0)"/>
       <use xlink:href="#DejaVuSans-57" transform="translate(637.0625 0)"/>
       <use xlink:href="#DejaVuSans-44" transform="translate(676.265625 0)"/>
       <use xlink:href="#DejaVuSans-4a" transform="translate(737.546875 0)"/>
       <use xlink:href="#DejaVuSans-48" transform="translate(801.03125 0)"/>
       <use xlink:href="#DejaVuSans-f" transform="translate(862.5625 0)"/>
       <use xlink:href="#DejaVuSans-3" transform="translate(894.34375 0)"/>
       <use xlink:href="#DejaVuSans-55" transform="translate(926.125 0)"/>
       <use xlink:href="#DejaVuSans-48" transform="translate(965.03125 0)"/>
       <use xlink:href="#DejaVuSans-46" transform="translate(1026.5625 0)"/>
       <use xlink:href="#DejaVuSans-55" transform="translate(1081.546875 0)"/>
       <use xlink:href="#DejaVuSans-58" transform="translate(1122.65625 0)"/>
       <use xlink:href="#DejaVuSans-4c" transform="translate(1186.03125 0)"/>
       <use xlink:href="#DejaVuSans-57" transform="translate(1213.8125 0)"/>
       <use xlink:href="#DejaVuSans-50" transform="translate(1253.015625 0)"/>
       <use xlink:href="#DejaVuSans-48" transform="translate(1350.421875 0)"/>
       <use xlink:href="#DejaVuSans-51" transform="translate(1411.953125 0)"/>
       <use xlink:href="#DejaVuSans-57" transform="translate(1475.328125 0)"/>
       <use xlink:href="#DejaVuSans-f" transform="translate(1514.53125 0)"/>
       <use xlink:href="#DejaVuSans-3" transform="translate(1546.3125 0)"/>
       <use xlink:href="#DejaVuSans-52" transform="translate(1578.09375 0)"/>
       <use xlink:href="#DejaVuSans-55" transform="translate(1639.28125 0)"/>
       <use xlink:href="#DejaVuSans-3" transform="translate(1680.390625 0)"/>
       <use xlink:href="#DejaVuSans-55" transform="translate(1712.171875 0)"/>
       <use xlink:href="#DejaVuSans-48" transform="translate(1751.078125 0)"/>
       <use xlink:href="#DejaVuSans-57" transform="translate(1812.609375 0)"/>
       <use xlink:href="#DejaVuSans-48" transform="translate(1851.8125 0)"/>
       <use xlink:href="#DejaVuSans-51" transform="translate(1913.34375 0)"/>
       <use xlink:href="#DejaVuSans-57" transform="translate(1976.71875 0)"/>
       <use xlink:href="#DejaVuSans-4c" transform="translate(2015.921875 0)"/>
       <use xlink:href="#DejaVuSans-52" transform="translate(2043.703125 0)"/>
       <use xlink:href="#DejaVuSans-51" transform="translate(2104.890625 0)"/>
      </g>
     </g>
    </g>
    <g id="ytick_5">
     <g id="line2d_21">
      <path d="M 289.51875 228.283821 
L 619.56875 228.283821 
" clip-path="url(#p1ef0608526)" style="fill: none; stroke: #e5e4df; stroke-width: 0.6; stroke-linecap: square"/>
     </g>
     <g id="line2d_22">
      <g>
       <use xlink:href="#mf456b19b25" x="289.51875" y="228.283821" style="fill: #0b0b0b; stroke: #0b0b0b; stroke-width: 0.8"/>
      </g>
     </g>
     <g id="text_12">
      <!-- Minimum staffing / continuous coverage -->
      <g style="fill: #0b0b0b" transform="translate(81.060937 232.08304) scale(0.1 -0.1)">
       <defs>
        <path id="DejaVuSans-30" d="M 628 4666 
L 1569 4666 
L 2759 1491 
L 3956 4666 
L 4897 4666 
L 4897 0 
L 4281 0 
L 4281 4097 
L 3078 897 
L 2444 897 
L 1241 4097 
L 1241 0 
L 628 0 
L 628 4666 
z
" transform="scale(0.015625)"/>
       </defs>
       <use xlink:href="#DejaVuSans-30"/>
       <use xlink:href="#DejaVuSans-4c" transform="translate(86.28125 0)"/>
       <use xlink:href="#DejaVuSans-51" transform="translate(114.0625 0)"/>
       <use xlink:href="#DejaVuSans-4c" transform="translate(177.4375 0)"/>
       <use xlink:href="#DejaVuSans-50" transform="translate(205.21875 0)"/>
       <use xlink:href="#DejaVuSans-58" transform="translate(302.625 0)"/>
       <use xlink:href="#DejaVuSans-50" transform="translate(366 0)"/>
       <use xlink:href="#DejaVuSans-3" transform="translate(463.40625 0)"/>
       <use xlink:href="#DejaVuSans-56" transform="translate(495.1875 0)"/>
       <use xlink:href="#DejaVuSans-57" transform="translate(547.28125 0)"/>
       <use xlink:href="#DejaVuSans-44" transform="translate(586.484375 0)"/>
       <use xlink:href="#DejaVuSans-13b1" transform="translate(647.765625 0)"/>
       <use xlink:href="#DejaVuSans-51" transform="translate(744.453125 0)"/>
       <use xlink:href="#DejaVuSans-4a" transform="translate(807.828125 0)"/>
       <use xlink:href="#DejaVuSans-3" transform="translate(871.3125 0)"/>
       <use xlink:href="#DejaVuSans-12" transform="translate(903.09375 0)"/>
       <use xlink:href="#DejaVuSans-3" transform="translate(936.78125 0)"/>
       <use xlink:href="#DejaVuSans-46" transform="translate(968.5625 0)"/>
       <use xlink:href="#DejaVuSans-52" transform="translate(1023.546875 0)"/>
       <use xlink:href="#DejaVuSans-51" transform="translate(1084.734375 0)"/>
       <use xlink:href="#DejaVuSans-57" transform="translate(1148.109375 0)"/>
       <use xlink:href="#DejaVuSans-4c" transform="translate(1187.3125 0)"/>
       <use xlink:href="#DejaVuSans-51" transform="translate(1215.09375 0)"/>
       <use xlink:href="#DejaVuSans-58" transform="translate(1278.46875 0)"/>
       <use xlink:href="#DejaVuSans-52" transform="translate(1341.84375 0)"/>
       <use xlink:href="#DejaVuSans-58" transform="translate(1403.03125 0)"/>
       <use xlink:href="#DejaVuSans-56" transform="translate(1466.40625 0)"/>
       <use xlink:href="#DejaVuSans-3" transform="translate(1518.5 0)"/>
       <use xlink:href="#DejaVuSans-46" transform="translate(1550.28125 0)"/>
       <use xlink:href="#DejaVuSans-52" transform="translate(1605.265625 0)"/>
       <use xlink:href="#DejaVuSans-59" transform="translate(1666.453125 0)"/>
       <use xlink:href="#DejaVuSans-48" transform="translate(1725.640625 0)"/>
       <use xlink:href="#DejaVuSans-55" transform="translate(1787.171875 0)"/>
       <use xlink:href="#DejaVuSans-44" transform="translate(1828.28125 0)"/>
       <use xlink:href="#DejaVuSans-4a" transform="translate(1889.5625 0)"/>
       <use xlink:href="#DejaVuSans-48" transform="translate(1953.046875 0)"/>
      </g>
     </g>
    </g>
    <g id="ytick_6">
     <g id="line2d_23">
      <path d="M 289.51875 267.432663 
L 619.56875 267.432663 
" clip-path="url(#p1ef0608526)" style="fill: none; stroke: #e5e4df; stroke-width: 0.6; stroke-linecap: square"/>
     </g>
     <g id="line2d_24">
      <g>
       <use xlink:href="#mf456b19b25" x="289.51875" y="267.432663" style="fill: #0b0b0b; stroke: #0b0b0b; stroke-width: 0.8"/>
      </g>
     </g>
     <g id="text_13">
      <!-- Overtime, callback, holdover, or mandatory extra work -->
      <g style="fill: #0b0b0b" transform="translate(7.2 271.231882) scale(0.1 -0.1)">
       <defs>
        <path id="DejaVuSans-32" d="M 2522 4238 
Q 1834 4238 1429 3725 
Q 1025 3213 1025 2328 
Q 1025 1447 1429 934 
Q 1834 422 2522 422 
Q 3209 422 3611 934 
Q 4013 1447 4013 2328 
Q 4013 3213 3611 3725 
Q 3209 4238 2522 4238 
z
M 2522 4750 
Q 3503 4750 4090 4092 
Q 4678 3434 4678 2328 
Q 4678 1225 4090 567 
Q 3503 -91 2522 -91 
Q 1538 -91 948 565 
Q 359 1222 359 2328 
Q 359 3434 948 4092 
Q 1538 4750 2522 4750 
z
" transform="scale(0.015625)"/>
        <path id="DejaVuSans-5c" d="M 2059 -325 
Q 1816 -950 1584 -1140 
Q 1353 -1331 966 -1331 
L 506 -1331 
L 506 -850 
L 844 -850 
Q 1081 -850 1212 -737 
Q 1344 -625 1503 -206 
L 1606 56 
L 191 3500 
L 800 3500 
L 1894 763 
L 2988 3500 
L 3597 3500 
L 2059 -325 
z
" transform="scale(0.015625)"/>
        <path id="DejaVuSans-5b" d="M 3513 3500 
L 2247 1797 
L 3578 0 
L 2900 0 
L 1881 1375 
L 863 0 
L 184 0 
L 1544 1831 
L 300 3500 
L 978 3500 
L 1906 2253 
L 2834 3500 
L 3513 3500 
z
" transform="scale(0.015625)"/>
       </defs>
       <use xlink:href="#DejaVuSans-32"/>
       <use xlink:href="#DejaVuSans-59" transform="translate(78.71875 0)"/>
       <use xlink:href="#DejaVuSans-48" transform="translate(137.90625 0)"/>
       <use xlink:href="#DejaVuSans-55" transform="translate(199.4375 0)"/>
       <use xlink:href="#DejaVuSans-57" transform="translate(240.546875 0)"/>
       <use xlink:href="#DejaVuSans-4c" transform="translate(279.75 0)"/>
       <use xlink:href="#DejaVuSans-50" transform="translate(307.53125 0)"/>
       <use xlink:href="#DejaVuSans-48" transform="translate(404.9375 0)"/>
       <use xlink:href="#DejaVuSans-f" transform="translate(466.46875 0)"/>
       <use xlink:href="#DejaVuSans-3" transform="translate(498.25 0)"/>
       <use xlink:href="#DejaVuSans-46" transform="translate(530.03125 0)"/>
       <use xlink:href="#DejaVuSans-44" transform="translate(585.015625 0)"/>
       <use xlink:href="#DejaVuSans-4f" transform="translate(646.296875 0)"/>
       <use xlink:href="#DejaVuSans-4f" transform="translate(674.078125 0)"/>
       <use xlink:href="#DejaVuSans-45" transform="translate(701.859375 0)"/>
       <use xlink:href="#DejaVuSans-44" transform="translate(765.34375 0)"/>
       <use xlink:href="#DejaVuSans-46" transform="translate(826.625 0)"/>
       <use xlink:href="#DejaVuSans-4e" transform="translate(881.609375 0)"/>
       <use xlink:href="#DejaVuSans-f" transform="translate(939.515625 0)"/>
       <use xlink:href="#DejaVuSans-3" transform="translate(971.296875 0)"/>
       <use xlink:href="#DejaVuSans-4b" transform="translate(1003.078125 0)"/>
       <use xlink:href="#DejaVuSans-52" transform="translate(1066.453125 0)"/>
       <use xlink:href="#DejaVuSans-4f" transform="translate(1127.640625 0)"/>
       <use xlink:href="#DejaVuSans-47" transform="translate(1155.421875 0)"/>
       <use xlink:href="#DejaVuSans-52" transform="translate(1218.90625 0)"/>
       <use xlink:href="#DejaVuSans-59" transform="translate(1280.09375 0)"/>
       <use xlink:href="#DejaVuSans-48" transform="translate(1339.28125 0)"/>
       <use xlink:href="#DejaVuSans-55" transform="translate(1400.8125 0)"/>
       <use xlink:href="#DejaVuSans-f" transform="translate(1441.921875 0)"/>
       <use xlink:href="#DejaVuSans-3" transform="translate(1473.703125 0)"/>
       <use xlink:href="#DejaVuSans-52" transform="translate(1505.484375 0)"/>
       <use xlink:href="#DejaVuSans-55" transform="translate(1566.671875 0)"/>
       <use xlink:href="#DejaVuSans-3" transform="translate(1607.78125 0)"/>
       <use xlink:href="#DejaVuSans-50" transform="translate(1639.5625 0)"/>
       <use xlink:href="#DejaVuSans-44" transform="translate(1736.96875 0)"/>
       <use xlink:href="#DejaVuSans-51" transform="translate(1798.25 0)"/>
       <use xlink:href="#DejaVuSans-47" transform="translate(1861.625 0)"/>
       <use xlink:href="#DejaVuSans-44" transform="translate(1925.109375 0)"/>
       <use xlink:href="#DejaVuSans-57" transform="translate(1986.390625 0)"/>
       <use xlink:href="#DejaVuSans-52" transform="translate(2025.59375 0)"/>
       <use xlink:href="#DejaVuSans-55" transform="translate(2086.78125 0)"/>
       <use xlink:href="#DejaVuSans-5c" transform="translate(2127.890625 0)"/>
       <use xlink:href="#DejaVuSans-3" transform="translate(2187.078125 0)"/>
       <use xlink:href="#DejaVuSans-48" transform="translate(2218.859375 0)"/>
       <use xlink:href="#DejaVuSans-5b" transform="translate(2278.640625 0)"/>
       <use xlink:href="#DejaVuSans-57" transform="translate(2337.828125 0)"/>
       <use xlink:href="#DejaVuSans-55" transform="translate(2377.03125 0)"/>
       <use xlink:href="#DejaVuSans-44" transform="translate(2418.140625 0)"/>
       <use xlink:href="#DejaVuSans-3" transform="translate(2479.421875 0)"/>
       <use xlink:href="#DejaVuSans-5a" transform="translate(2511.203125 0)"/>
       <use xlink:href="#DejaVuSans-52" transform="translate(2592.984375 0)"/>
       <use xlink:href="#DejaVuSans-55" transform="translate(2654.171875 0)"/>
       <use xlink:href="#DejaVuSans-4e" transform="translate(2695.28125 0)"/>
      </g>
     </g>
    </g>
    <g id="ytick_7">
     <g id="line2d_25">
      <path d="M 289.51875 306.581505 
L 619.56875 306.581505 
" clip-path="url(#p1ef0608526)" style="fill: none; stroke: #e5e4df; stroke-width: 0.6; stroke-linecap: square"/>
     </g>
     <g id="line2d_26">
      <g>
       <use xlink:href="#mf456b19b25" x="289.51875" y="306.581505" style="fill: #0b0b0b; stroke: #0b0b0b; stroke-width: 0.8"/>
      </g>
     </g>
     <g id="text_14">
      <!-- Premium pay / differentials -->
      <g style="fill: #0b0b0b" transform="translate(147.360938 310.380724) scale(0.1 -0.1)">
       <defs>
        <path id="DejaVuSans-13ae" d="M 4531 4863 
L 4531 4384 
L 3981 4384 
Q 3672 4384 3551 4259 
Q 3431 4134 3431 3809 
L 3431 3500 
L 4378 3500 
L 4378 3053 
L 3431 3053 
L 3431 0 
L 2853 0 
L 2853 3053 
L 1275 3053 
L 1275 0 
L 697 0 
L 697 3053 
L 147 3053 
L 147 3500 
L 697 3500 
L 697 3744 
Q 697 4328 969 4595 
Q 1241 4863 1831 4863 
L 2375 4863 
L 2375 4384 
L 1825 4384 
Q 1516 4384 1394 4259 
Q 1275 4134 1275 3809 
L 1275 3500 
L 2853 3500 
L 2853 3744 
Q 2853 4328 3125 4595 
Q 3397 4863 3988 4863 
L 4531 4863 
z
" transform="scale(0.015625)"/>
       </defs>
       <use xlink:href="#DejaVuSans-33"/>
       <use xlink:href="#DejaVuSans-55" transform="translate(58.546875 0)"/>
       <use xlink:href="#DejaVuSans-48" transform="translate(97.453125 0)"/>
       <use xlink:href="#DejaVuSans-50" transform="translate(158.984375 0)"/>
       <use xlink:href="#DejaVuSans-4c" transform="translate(256.390625 0)"/>
       <use xlink:href="#DejaVuSans-58" transform="translate(284.171875 0)"/>
       <use xlink:href="#DejaVuSans-50" transform="translate(347.546875 0)"/>
       <use xlink:href="#DejaVuSans-3" transform="translate(444.953125 0)"/>
       <use xlink:href="#DejaVuSans-53" transform="translate(476.734375 0)"/>
       <use xlink:href="#DejaVuSans-44" transform="translate(540.21875 0)"/>
       <use xlink:href="#DejaVuSans-5c" transform="translate(601.5 0)"/>
       <use xlink:href="#DejaVuSans-3" transform="translate(660.6875 0)"/>
       <use xlink:href="#DejaVuSans-12" transform="translate(692.46875 0)"/>
       <use xlink:href="#DejaVuSans-3" transform="translate(726.15625 0)"/>
       <use xlink:href="#DejaVuSans-47" transform="translate(757.9375 0)"/>
       <use xlink:href="#DejaVuSans-4c" transform="translate(821.421875 0)"/>
       <use xlink:href="#DejaVuSans-13ae" transform="translate(849.203125 0)"/>
       <use xlink:href="#DejaVuSans-48" transform="translate(918.09375 0)"/>
       <use xlink:href="#DejaVuSans-55" transform="translate(979.625 0)"/>
       <use xlink:href="#DejaVuSans-48" transform="translate(1018.53125 0)"/>
       <use xlink:href="#DejaVuSans-51" transform="translate(1080.0625 0)"/>
       <use xlink:href="#DejaVuSans-57" transform="translate(1143.4375 0)"/>
       <use xlink:href="#DejaVuSans-4c" transform="translate(1182.640625 0)"/>
       <use xlink:href="#DejaVuSans-44" transform="translate(1210.421875 0)"/>
       <use xlink:href="#DejaVuSans-4f" transform="translate(1271.703125 0)"/>
       <use xlink:href="#DejaVuSans-56" transform="translate(1299.484375 0)"/>
      </g>
     </g>
    </g>
    <g id="ytick_8">
     <g id="line2d_27">
      <path d="M 289.51875 345.730347 
L 619.56875 345.730347 
" clip-path="url(#p1ef0608526)" style="fill: none; stroke: #e5e4df; stroke-width: 0.6; stroke-linecap: square"/>
     </g>
     <g id="line2d_28">
      <g>
       <use xlink:href="#mf456b19b25" x="289.51875" y="345.730347" style="fill: #0b0b0b; stroke: #0b0b0b; stroke-width: 0.8"/>
      </g>
     </g>
     <g id="text_15">
      <!-- Classification, reclassification, or wage-grade structure -->
      <g style="fill: #0b0b0b" transform="translate(7.446875 349.529565) scale(0.1 -0.1)">
       <defs>
        <path id="DejaVuSans-26" d="M 4122 4306 
L 4122 3641 
Q 3803 3938 3442 4084 
Q 3081 4231 2675 4231 
Q 1875 4231 1450 3742 
Q 1025 3253 1025 2328 
Q 1025 1406 1450 917 
Q 1875 428 2675 428 
Q 3081 428 3442 575 
Q 3803 722 4122 1019 
L 4122 359 
Q 3791 134 3420 21 
Q 3050 -91 2638 -91 
Q 1578 -91 968 557 
Q 359 1206 359 2328 
Q 359 3453 968 4101 
Q 1578 4750 2638 4750 
Q 3056 4750 3426 4639 
Q 3797 4528 4122 4306 
z
" transform="scale(0.015625)"/>
       </defs>
       <use xlink:href="#DejaVuSans-26"/>
       <use xlink:href="#DejaVuSans-4f" transform="translate(69.828125 0)"/>
       <use xlink:href="#DejaVuSans-44" transform="translate(97.609375 0)"/>
       <use xlink:href="#DejaVuSans-56" transform="translate(158.890625 0)"/>
       <use xlink:href="#DejaVuSans-56" transform="translate(210.984375 0)"/>
       <use xlink:href="#DejaVuSans-4c" transform="translate(263.078125 0)"/>
       <use xlink:href="#DejaVuSans-13af" transform="translate(290.859375 0)"/>
       <use xlink:href="#DejaVuSans-46" transform="translate(353.84375 0)"/>
       <use xlink:href="#DejaVuSans-44" transform="translate(408.828125 0)"/>
       <use xlink:href="#DejaVuSans-57" transform="translate(470.109375 0)"/>
       <use xlink:href="#DejaVuSans-4c" transform="translate(509.3125 0)"/>
       <use xlink:href="#DejaVuSans-52" transform="translate(537.09375 0)"/>
       <use xlink:href="#DejaVuSans-51" transform="translate(598.28125 0)"/>
       <use xlink:href="#DejaVuSans-f" transform="translate(661.65625 0)"/>
       <use xlink:href="#DejaVuSans-3" transform="translate(693.4375 0)"/>
       <use xlink:href="#DejaVuSans-55" transform="translate(725.21875 0)"/>
       <use xlink:href="#DejaVuSans-48" transform="translate(764.125 0)"/>
       <use xlink:href="#DejaVuSans-46" transform="translate(825.65625 0)"/>
       <use xlink:href="#DejaVuSans-4f" transform="translate(880.640625 0)"/>
       <use xlink:href="#DejaVuSans-44" transform="translate(908.421875 0)"/>
       <use xlink:href="#DejaVuSans-56" transform="translate(969.703125 0)"/>
       <use xlink:href="#DejaVuSans-56" transform="translate(1021.796875 0)"/>
       <use xlink:href="#DejaVuSans-4c" transform="translate(1073.890625 0)"/>
       <use xlink:href="#DejaVuSans-13af" transform="translate(1101.671875 0)"/>
       <use xlink:href="#DejaVuSans-46" transform="translate(1164.65625 0)"/>
       <use xlink:href="#DejaVuSans-44" transform="translate(1219.640625 0)"/>
       <use xlink:href="#DejaVuSans-57" transform="translate(1280.921875 0)"/>
       <use xlink:href="#DejaVuSans-4c" transform="translate(1320.125 0)"/>
       <use xlink:href="#DejaVuSans-52" transform="translate(1347.90625 0)"/>
       <use xlink:href="#DejaVuSans-51" transform="translate(1409.09375 0)"/>
       <use xlink:href="#DejaVuSans-f" transform="translate(1472.46875 0)"/>
       <use xlink:href="#DejaVuSans-3" transform="translate(1504.25 0)"/>
       <use xlink:href="#DejaVuSans-52" transform="translate(1536.03125 0)"/>
       <use xlink:href="#DejaVuSans-55" transform="translate(1597.21875 0)"/>
       <use xlink:href="#DejaVuSans-3" transform="translate(1638.328125 0)"/>
       <use xlink:href="#DejaVuSans-5a" transform="translate(1670.109375 0)"/>
       <use xlink:href="#DejaVuSans-44" transform="translate(1751.890625 0)"/>
       <use xlink:href="#DejaVuSans-4a" transform="translate(1813.171875 0)"/>
       <use xlink:href="#DejaVuSans-48" transform="translate(1876.65625 0)"/>
       <use xlink:href="#DejaVuSans-10" transform="translate(1938.1875 0)"/>
       <use xlink:href="#DejaVuSans-4a" transform="translate(1974.265625 0)"/>
       <use xlink:href="#DejaVuSans-55" transform="translate(2037.75 0)"/>
       <use xlink:href="#DejaVuSans-44" transform="translate(2078.859375 0)"/>
       <use xlink:href="#DejaVuSans-47" transform="translate(2140.140625 0)"/>
       <use xlink:href="#DejaVuSans-48" transform="translate(2203.625 0)"/>
       <use xlink:href="#DejaVuSans-3" transform="translate(2265.15625 0)"/>
       <use xlink:href="#DejaVuSans-56" transform="translate(2296.9375 0)"/>
       <use xlink:href="#DejaVuSans-57" transform="translate(2349.03125 0)"/>
       <use xlink:href="#DejaVuSans-55" transform="translate(2388.234375 0)"/>
       <use xlink:href="#DejaVuSans-58" transform="translate(2429.34375 0)"/>
       <use xlink:href="#DejaVuSans-46" transform="translate(2492.71875 0)"/>
       <use xlink:href="#DejaVuSans-57" transform="translate(2547.703125 0)"/>
       <use xlink:href="#DejaVuSans-58" transform="translate(2586.90625 0)"/>
       <use xlink:href="#DejaVuSans-55" transform="translate(2650.28125 0)"/>
       <use xlink:href="#DejaVuSans-48" transform="translate(2689.1875 0)"/>
      </g>
     </g>
    </g>
    <g id="ytick_9">
     <g id="line2d_29">
      <path d="M 289.51875 384.879188 
L 619.56875 384.879188 
" clip-path="url(#p1ef0608526)" style="fill: none; stroke: #e5e4df; stroke-width: 0.6; stroke-linecap: square"/>
     </g>
     <g id="line2d_30">
      <g>
       <use xlink:href="#mf456b19b25" x="289.51875" y="384.879188" style="fill: #0b0b0b; stroke: #0b0b0b; stroke-width: 0.8"/>
      </g>
     </g>
     <g id="text_16">
      <!-- Management rights / service flexibility -->
      <g style="fill: #0b0b0b" transform="translate(90.540625 388.678407) scale(0.1 -0.1)">
       <defs>
        <path id="DejaVuSans-13b0" d="M 1831 4863 
L 3431 4863 
L 3431 0 
L 2853 0 
L 2853 4384 
L 1825 4384 
Q 1516 4384 1395 4259 
Q 1275 4134 1275 3809 
L 1275 3500 
L 2222 3500 
L 2222 3053 
L 1275 3053 
L 1275 0 
L 697 0 
L 697 3053 
L 147 3053 
L 147 3500 
L 697 3500 
L 697 3744 
Q 697 4328 969 4595 
Q 1241 4863 1831 4863 
z
" transform="scale(0.015625)"/>
       </defs>
       <use xlink:href="#DejaVuSans-30"/>
       <use xlink:href="#DejaVuSans-44" transform="translate(86.28125 0)"/>
       <use xlink:href="#DejaVuSans-51" transform="translate(147.5625 0)"/>
       <use xlink:href="#DejaVuSans-44" transform="translate(210.9375 0)"/>
       <use xlink:href="#DejaVuSans-4a" transform="translate(272.21875 0)"/>
       <use xlink:href="#DejaVuSans-48" transform="translate(335.703125 0)"/>
       <use xlink:href="#DejaVuSans-50" transform="translate(397.234375 0)"/>
       <use xlink:href="#DejaVuSans-48" transform="translate(494.640625 0)"/>
       <use xlink:href="#DejaVuSans-51" transform="translate(556.171875 0)"/>
       <use xlink:href="#DejaVuSans-57" transform="translate(619.546875 0)"/>
       <use xlink:href="#DejaVuSans-3" transform="translate(658.75 0)"/>
       <use xlink:href="#DejaVuSans-55" transform="translate(690.53125 0)"/>
       <use xlink:href="#DejaVuSans-4c" transform="translate(731.640625 0)"/>
       <use xlink:href="#DejaVuSans-4a" transform="translate(759.421875 0)"/>
       <use xlink:href="#DejaVuSans-4b" transform="translate(822.90625 0)"/>
       <use xlink:href="#DejaVuSans-57" transform="translate(886.28125 0)"/>
       <use xlink:href="#DejaVuSans-56" transform="translate(925.484375 0)"/>
       <use xlink:href="#DejaVuSans-3" transform="translate(977.578125 0)"/>
       <use xlink:href="#DejaVuSans-12" transform="translate(1009.359375 0)"/>
       <use xlink:href="#DejaVuSans-3" transform="translate(1043.046875 0)"/>
       <use xlink:href="#DejaVuSans-56" transform="translate(1074.828125 0)"/>
       <use xlink:href="#DejaVuSans-48" transform="translate(1126.921875 0)"/>
       <use xlink:href="#DejaVuSans-55" transform="translate(1188.453125 0)"/>
       <use xlink:href="#DejaVuSans-59" transform="translate(1229.5625 0)"/>
       <use xlink:href="#DejaVuSans-4c" transform="translate(1288.75 0)"/>
       <use xlink:href="#DejaVuSans-46" transform="translate(1316.53125 0)"/>
       <use xlink:href="#DejaVuSans-48" transform="translate(1371.515625 0)"/>
       <use xlink:href="#DejaVuSans-3" transform="translate(1433.046875 0)"/>
       <use xlink:href="#DejaVuSans-13b0" transform="translate(1464.828125 0)"/>
       <use xlink:href="#DejaVuSans-48" transform="translate(1527.8125 0)"/>
       <use xlink:href="#DejaVuSans-5b" transform="translate(1587.59375 0)"/>
       <use xlink:href="#DejaVuSans-4c" transform="translate(1646.78125 0)"/>
       <use xlink:href="#DejaVuSans-45" transform="translate(1674.5625 0)"/>
       <use xlink:href="#DejaVuSans-4c" transform="translate(1738.046875 0)"/>
       <use xlink:href="#DejaVuSans-4f" transform="translate(1765.828125 0)"/>
       <use xlink:href="#DejaVuSans-4c" transform="translate(1793.609375 0)"/>
       <use xlink:href="#DejaVuSans-57" transform="translate(1821.390625 0)"/>
       <use xlink:href="#DejaVuSans-5c" transform="translate(1860.59375 0)"/>
      </g>
     </g>
    </g>
    <g id="ytick_10">
     <g id="line2d_31">
      <path d="M 289.51875 424.02803 
L 619.56875 424.02803 
" clip-path="url(#p1ef0608526)" style="fill: none; stroke: #e5e4df; stroke-width: 0.6; stroke-linecap: square"/>
     </g>
     <g id="line2d_32">
      <g>
       <use xlink:href="#mf456b19b25" x="289.51875" y="424.02803" style="fill: #0b0b0b; stroke: #0b0b0b; stroke-width: 0.8"/>
      </g>
     </g>
     <g id="text_17">
      <!-- Non-safety wage restraint / administrative channel -->
      <g style="fill: #0b0b0b" transform="translate(27.7875 427.827249) scale(0.1 -0.1)">
       <defs>
        <path id="DejaVuSans-31" d="M 628 4666 
L 1478 4666 
L 3547 763 
L 3547 4666 
L 4159 4666 
L 4159 0 
L 3309 0 
L 1241 3903 
L 1241 0 
L 628 0 
L 628 4666 
z
" transform="scale(0.015625)"/>
       </defs>
       <use xlink:href="#DejaVuSans-31"/>
       <use xlink:href="#DejaVuSans-52" transform="translate(74.8125 0)"/>
       <use xlink:href="#DejaVuSans-51" transform="translate(136 0)"/>
       <use xlink:href="#DejaVuSans-10" transform="translate(199.375 0)"/>
       <use xlink:href="#DejaVuSans-56" transform="translate(235.453125 0)"/>
       <use xlink:href="#DejaVuSans-44" transform="translate(287.546875 0)"/>
       <use xlink:href="#DejaVuSans-49" transform="translate(348.828125 0)"/>
       <use xlink:href="#DejaVuSans-48" transform="translate(384.03125 0)"/>
       <use xlink:href="#DejaVuSans-57" transform="translate(445.5625 0)"/>
       <use xlink:href="#DejaVuSans-5c" transform="translate(484.765625 0)"/>
       <use xlink:href="#DejaVuSans-3" transform="translate(543.953125 0)"/>
       <use xlink:href="#DejaVuSans-5a" transform="translate(575.734375 0)"/>
       <use xlink:href="#DejaVuSans-44" transform="translate(657.515625 0)"/>
       <use xlink:href="#DejaVuSans-4a" transform="translate(718.796875 0)"/>
       <use xlink:href="#DejaVuSans-48" transform="translate(782.28125 0)"/>
       <use xlink:href="#DejaVuSans-3" transform="translate(843.8125 0)"/>
       <use xlink:href="#DejaVuSans-55" transform="translate(875.59375 0)"/>
       <use xlink:href="#DejaVuSans-48" transform="translate(914.5 0)"/>
       <use xlink:href="#DejaVuSans-56" transform="translate(976.03125 0)"/>
       <use xlink:href="#DejaVuSans-57" transform="translate(1028.125 0)"/>
       <use xlink:href="#DejaVuSans-55" transform="translate(1067.328125 0)"/>
       <use xlink:href="#DejaVuSans-44" transform="translate(1108.4375 0)"/>
       <use xlink:href="#DejaVuSans-4c" transform="translate(1169.71875 0)"/>
       <use xlink:href="#DejaVuSans-51" transform="translate(1197.5 0)"/>
       <use xlink:href="#DejaVuSans-57" transform="translate(1260.875 0)"/>
       <use xlink:href="#DejaVuSans-3" transform="translate(1300.078125 0)"/>
       <use xlink:href="#DejaVuSans-12" transform="translate(1331.859375 0)"/>
       <use xlink:href="#DejaVuSans-3" transform="translate(1365.546875 0)"/>
       <use xlink:href="#DejaVuSans-44" transform="translate(1397.328125 0)"/>
       <use xlink:href="#DejaVuSans-47" transform="translate(1458.609375 0)"/>
       <use xlink:href="#DejaVuSans-50" transform="translate(1522.09375 0)"/>
       <use xlink:href="#DejaVuSans-4c" transform="translate(1619.5 0)"/>
       <use xlink:href="#DejaVuSans-51" transform="translate(1647.28125 0)"/>
       <use xlink:href="#DejaVuSans-4c" transform="translate(1710.65625 0)"/>
       <use xlink:href="#DejaVuSans-56" transform="translate(1738.4375 0)"/>
       <use xlink:href="#DejaVuSans-57" transform="translate(1790.53125 0)"/>
       <use xlink:href="#DejaVuSans-55" transform="translate(1829.734375 0)"/>
       <use xlink:href="#DejaVuSans-44" transform="translate(1870.84375 0)"/>
       <use xlink:href="#DejaVuSans-57" transform="translate(1932.125 0)"/>
       <use xlink:href="#DejaVuSans-4c" transform="translate(1971.328125 0)"/>
       <use xlink:href="#DejaVuSans-59" transform="translate(1999.109375 0)"/>
       <use xlink:href="#DejaVuSans-48" transform="translate(2058.296875 0)"/>
       <use xlink:href="#DejaVuSans-3" transform="translate(2119.828125 0)"/>
       <use xlink:href="#DejaVuSans-46" transform="translate(2151.609375 0)"/>
       <use xlink:href="#DejaVuSans-4b" transform="translate(2206.59375 0)"/>
       <use xlink:href="#DejaVuSans-44" transform="translate(2269.96875 0)"/>
       <use xlink:href="#DejaVuSans-51" transform="translate(2331.25 0)"/>
       <use xlink:href="#DejaVuSans-51" transform="translate(2394.625 0)"/>
       <use xlink:href="#DejaVuSans-48" transform="translate(2458 0)"/>
       <use xlink:href="#DejaVuSans-4f" transform="translate(2519.53125 0)"/>
      </g>
     </g>
    </g>
   </g>
   <g id="patch_3">
    <path d="M 289.51875 57.007638 
L 304.521023 57.007638 
L 304.521023 66.794849 
L 289.51875 66.794849 
z
" clip-path="url(#p1ef0608526)" style="fill: #2a78d6"/>
   </g>
   <g id="patch_4">
    <path d="M 289.51875 96.15648 
L 394.534659 96.15648 
L 394.534659 105.943691 
L 289.51875 105.943691 
z
" clip-path="url(#p1ef0608526)" style="fill: #2a78d6"/>
   </g>
   <g id="patch_5">
    <path d="M 289.51875 135.305322 
L 454.54375 135.305322 
L 454.54375 145.092533 
L 289.51875 145.092533 
z
" clip-path="url(#p1ef0608526)" style="fill: #2a78d6"/>
   </g>
   <g id="patch_6">
    <path d="M 289.51875 174.454164 
L 334.525568 174.454164 
L 334.525568 184.241374 
L 289.51875 184.241374 
z
" clip-path="url(#p1ef0608526)" style="fill: #2a78d6"/>
   </g>
   <g id="patch_7">
    <path d="M 289.51875 213.603006 
L 364.530114 213.603006 
L 364.530114 223.390216 
L 289.51875 223.390216 
z
" clip-path="url(#p1ef0608526)" style="fill: #2a78d6"/>
   </g>
   <g id="patch_8">
    <path d="M 289.51875 252.751847 
L 499.550568 252.751847 
L 499.550568 262.539058 
L 289.51875 262.539058 
z
" clip-path="url(#p1ef0608526)" style="fill: #2a78d6"/>
   </g>
   <g id="patch_9">
    <path d="M 289.51875 291.900689 
L 424.539205 291.900689 
L 424.539205 301.6879 
L 289.51875 301.6879 
z
" clip-path="url(#p1ef0608526)" style="fill: #2a78d6"/>
   </g>
   <g id="patch_10">
    <path d="M 289.51875 331.049531 
L 439.541477 331.049531 
L 439.541477 340.836741 
L 289.51875 340.836741 
z
" clip-path="url(#p1ef0608526)" style="fill: #2a78d6"/>
   </g>
   <g id="patch_11">
    <path d="M 289.51875 370.198373 
L 439.541477 370.198373 
L 439.541477 379.985583 
L 289.51875 379.985583 
z
" clip-path="url(#p1ef0608526)" style="fill: #2a78d6"/>
   </g>
   <g id="patch_12">
    <path d="M 289.51875 409.347215 
L 319.523295 409.347215 
L 319.523295 419.134425 
L 289.51875 419.134425 
z
" clip-path="url(#p1ef0608526)" style="fill: #2a78d6"/>
   </g>
   <g id="patch_13">
    <path d="M 289.51875 66.794849 
L 289.51875 66.794849 
L 289.51875 76.582059 
L 289.51875 76.582059 
z
" clip-path="url(#p1ef0608526)" style="fill: #eda100"/>
   </g>
   <g id="patch_14">
    <path d="M 289.51875 105.943691 
L 289.51875 105.943691 
L 289.51875 115.730901 
L 289.51875 115.730901 
z
" clip-path="url(#p1ef0608526)" style="fill: #eda100"/>
   </g>
   <g id="patch_15">
    <path d="M 289.51875 145.092533 
L 619.56875 145.092533 
L 619.56875 154.879743 
L 289.51875 154.879743 
z
" clip-path="url(#p1ef0608526)" style="fill: #eda100"/>
   </g>
   <g id="patch_16">
    <path d="M 289.51875 184.241374 
L 289.51875 184.241374 
L 289.51875 194.028585 
L 289.51875 194.028585 
z
" clip-path="url(#p1ef0608526)" style="fill: #eda100"/>
   </g>
   <g id="patch_17">
    <path d="M 289.51875 223.390216 
L 289.51875 223.390216 
L 289.51875 233.177427 
L 289.51875 233.177427 
z
" clip-path="url(#p1ef0608526)" style="fill: #eda100"/>
   </g>
   <g id="patch_18">
    <path d="M 289.51875 262.539058 
L 619.56875 262.539058 
L 619.56875 272.326268 
L 289.51875 272.326268 
z
" clip-path="url(#p1ef0608526)" style="fill: #eda100"/>
   </g>
   <g id="patch_19">
    <path d="M 289.51875 301.6879 
L 619.56875 301.6879 
L 619.56875 311.47511 
L 289.51875 311.47511 
z
" clip-path="url(#p1ef0608526)" style="fill: #eda100"/>
   </g>
   <g id="patch_20">
    <path d="M 289.51875 340.836741 
L 619.56875 340.836741 
L 619.56875 350.623952 
L 289.51875 350.623952 
z
" clip-path="url(#p1ef0608526)" style="fill: #eda100"/>
   </g>
   <g id="patch_21">
    <path d="M 289.51875 379.985583 
L 619.56875 379.985583 
L 619.56875 389.772794 
L 289.51875 389.772794 
z
" clip-path="url(#p1ef0608526)" style="fill: #eda100"/>
   </g>
   <g id="patch_22">
    <path d="M 289.51875 419.134425 
L 289.51875 419.134425 
L 289.51875 428.921635 
L 289.51875 428.921635 
z
" clip-path="url(#p1ef0608526)" style="fill: #eda100"/>
   </g>
   <g id="patch_23">
    <path d="M 289.51875 76.582059 
L 289.51875 76.582059 
L 289.51875 86.36927 
L 289.51875 86.36927 
z
" clip-path="url(#p1ef0608526)" style="fill: #1baf7a"/>
   </g>
   <g id="patch_24">
    <path d="M 289.51875 115.730901 
L 313.09375 115.730901 
L 313.09375 125.518112 
L 289.51875 125.518112 
z
" clip-path="url(#p1ef0608526)" style="fill: #1baf7a"/>
   </g>
   <g id="patch_25">
    <path d="M 289.51875 154.879743 
L 454.54375 154.879743 
L 454.54375 164.666953 
L 289.51875 164.666953 
z
" clip-path="url(#p1ef0608526)" style="fill: #1baf7a"/>
   </g>
   <g id="patch_26">
    <path d="M 289.51875 194.028585 
L 336.66875 194.028585 
L 336.66875 203.815795 
L 289.51875 203.815795 
z
" clip-path="url(#p1ef0608526)" style="fill: #1baf7a"/>
   </g>
   <g id="patch_27">
    <path d="M 289.51875 233.177427 
L 289.51875 233.177427 
L 289.51875 242.964637 
L 289.51875 242.964637 
z
" clip-path="url(#p1ef0608526)" style="fill: #1baf7a"/>
   </g>
   <g id="patch_28">
    <path d="M 289.51875 272.326268 
L 478.11875 272.326268 
L 478.11875 282.113479 
L 289.51875 282.113479 
z
" clip-path="url(#p1ef0608526)" style="fill: #1baf7a"/>
   </g>
   <g id="patch_29">
    <path d="M 289.51875 311.47511 
L 430.96875 311.47511 
L 430.96875 321.262321 
L 289.51875 321.262321 
z
" clip-path="url(#p1ef0608526)" style="fill: #1baf7a"/>
   </g>
   <g id="patch_30">
    <path d="M 289.51875 350.623952 
L 501.69375 350.623952 
L 501.69375 360.411162 
L 289.51875 360.411162 
z
" clip-path="url(#p1ef0608526)" style="fill: #1baf7a"/>
   </g>
   <g id="patch_31">
    <path d="M 289.51875 389.772794 
L 407.39375 389.772794 
L 407.39375 399.560004 
L 289.51875 399.560004 
z
" clip-path="url(#p1ef0608526)" style="fill: #1baf7a"/>
   </g>
   <g id="patch_32">
    <path d="M 289.51875 428.921635 
L 313.09375 428.921635 
L 313.09375 438.708846 
L 289.51875 438.708846 
z
" clip-path="url(#p1ef0608526)" style="fill: #1baf7a"/>
   </g>
   <g id="patch_33">
    <path d="M 289.51875 457.793906 
L 289.51875 37.922578 
" style="fill: none; stroke: #52514e; stroke-width: 0.8; stroke-linejoin: miter; stroke-linecap: square"/>
   </g>
   <g id="patch_34">
    <path d="M 289.51875 457.793906 
L 619.56875 457.793906 
" style="fill: none; stroke: #52514e; stroke-width: 0.8; stroke-linejoin: miter; stroke-linecap: square"/>
   </g>
   <g id="text_18">
    <!-- Coded mechanism evidence by safety group -->
    <g style="fill: #0b0b0b" transform="translate(320.583437 17.519297) scale(0.12 -0.12)">
     <use xlink:href="#DejaVuSans-26"/>
     <use xlink:href="#DejaVuSans-52" transform="translate(69.828125 0)"/>
     <use xlink:href="#DejaVuSans-47" transform="translate(131.015625 0)"/>
     <use xlink:href="#DejaVuSans-48" transform="translate(194.5 0)"/>
     <use xlink:href="#DejaVuSans-47" transform="translate(256.03125 0)"/>
     <use xlink:href="#DejaVuSans-3" transform="translate(319.515625 0)"/>
     <use xlink:href="#DejaVuSans-50" transform="translate(351.296875 0)"/>
     <use xlink:href="#DejaVuSans-48" transform="translate(448.703125 0)"/>
     <use xlink:href="#DejaVuSans-46" transform="translate(510.234375 0)"/>
     <use xlink:href="#DejaVuSans-4b" transform="translate(565.21875 0)"/>
     <use xlink:href="#DejaVuSans-44" transform="translate(628.59375 0)"/>
     <use xlink:href="#DejaVuSans-51" transform="translate(689.875 0)"/>
     <use xlink:href="#DejaVuSans-4c" transform="translate(753.25 0)"/>
     <use xlink:href="#DejaVuSans-56" transform="translate(781.03125 0)"/>
     <use xlink:href="#DejaVuSans-50" transform="translate(833.125 0)"/>
     <use xlink:href="#DejaVuSans-3" transform="translate(930.53125 0)"/>
     <use xlink:href="#DejaVuSans-48" transform="translate(962.3125 0)"/>
     <use xlink:href="#DejaVuSans-59" transform="translate(1023.84375 0)"/>
     <use xlink:href="#DejaVuSans-4c" transform="translate(1083.03125 0)"/>
     <use xlink:href="#DejaVuSans-47" transform="translate(1110.8125 0)"/>
     <use xlink:href="#DejaVuSans-48" transform="translate(1174.296875 0)"/>
     <use xlink:href="#DejaVuSans-51" transform="translate(1235.828125 0)"/>
     <use xlink:href="#DejaVuSans-46" transform="translate(1299.203125 0)"/>
     <use xlink:href="#DejaVuSans-48" transform="translate(1354.1875 0)"/>
     <use xlink:href="#DejaVuSans-3" transform="translate(1415.71875 0)"/>
     <use xlink:href="#DejaVuSans-45" transform="translate(1447.5 0)"/>
     <use xlink:href="#DejaVuSans-5c" transform="translate(1510.984375 0)"/>
     <use xlink:href="#DejaVuSans-3" transform="translate(1570.171875 0)"/>
     <use xlink:href="#DejaVuSans-56" transform="translate(1601.953125 0)"/>
     <use xlink:href="#DejaVuSans-44" transform="translate(1654.046875 0)"/>
     <use xlink:href="#DejaVuSans-49" transform="translate(1715.328125 0)"/>
     <use xlink:href="#DejaVuSans-48" transform="translate(1750.53125 0)"/>
     <use xlink:href="#DejaVuSans-57" transform="translate(1812.0625 0)"/>
     <use xlink:href="#DejaVuSans-5c" transform="translate(1851.265625 0)"/>
     <use xlink:href="#DejaVuSans-3" transform="translate(1910.453125 0)"/>
     <use xlink:href="#DejaVuSans-4a" transform="translate(1942.234375 0)"/>
     <use xlink:href="#DejaVuSans-55" transform="translate(2005.71875 0)"/>
     <use xlink:href="#DejaVuSans-52" transform="translate(2044.625 0)"/>
     <use xlink:href="#DejaVuSans-58" transform="translate(2105.8125 0)"/>
     <use xlink:href="#DejaVuSans-53" transform="translate(2169.1875 0)"/>
    </g>
    <!-- (GABRIEL-coded presence, not a measure of causal effect) -->
    <g style="fill: #0b0b0b" transform="translate(279.007187 31.922578) scale(0.12 -0.12)">
     <use xlink:href="#DejaVuSans-b"/>
     <use xlink:href="#DejaVuSans-2a" transform="translate(39.015625 0)"/>
     <use xlink:href="#DejaVuSans-24" transform="translate(116.5 0)"/>
     <use xlink:href="#DejaVuSans-25" transform="translate(184.90625 0)"/>
     <use xlink:href="#DejaVuSans-35" transform="translate(253.515625 0)"/>
     <use xlink:href="#DejaVuSans-2c" transform="translate(323 0)"/>
     <use xlink:href="#DejaVuSans-28" transform="translate(352.5 0)"/>
     <use xlink:href="#DejaVuSans-2f" transform="translate(415.6875 0)"/>
     <use xlink:href="#DejaVuSans-10" transform="translate(469.65625 0)"/>
     <use xlink:href="#DejaVuSans-46" transform="translate(505.734375 0)"/>
     <use xlink:href="#DejaVuSans-52" transform="translate(560.71875 0)"/>
     <use xlink:href="#DejaVuSans-47" transform="translate(621.90625 0)"/>
     <use xlink:href="#DejaVuSans-48" transform="translate(685.390625 0)"/>
     <use xlink:href="#DejaVuSans-47" transform="translate(746.921875 0)"/>
     <use xlink:href="#DejaVuSans-3" transform="translate(810.40625 0)"/>
     <use xlink:href="#DejaVuSans-53" transform="translate(842.1875 0)"/>
     <use xlink:href="#DejaVuSans-55" transform="translate(905.671875 0)"/>
     <use xlink:href="#DejaVuSans-48" transform="translate(944.578125 0)"/>
     <use xlink:href="#DejaVuSans-56" transform="translate(1006.109375 0)"/>
     <use xlink:href="#DejaVuSans-48" transform="translate(1058.203125 0)"/>
     <use xlink:href="#DejaVuSans-51" transform="translate(1119.734375 0)"/>
     <use xlink:href="#DejaVuSans-46" transform="translate(1183.109375 0)"/>
     <use xlink:href="#DejaVuSans-48" transform="translate(1238.09375 0)"/>
     <use xlink:href="#DejaVuSans-f" transform="translate(1299.625 0)"/>
     <use xlink:href="#DejaVuSans-3" transform="translate(1331.40625 0)"/>
     <use xlink:href="#DejaVuSans-51" transform="translate(1363.1875 0)"/>
     <use xlink:href="#DejaVuSans-52" transform="translate(1426.5625 0)"/>
     <use xlink:href="#DejaVuSans-57" transform="translate(1487.75 0)"/>
     <use xlink:href="#DejaVuSans-3" transform="translate(1526.953125 0)"/>
     <use xlink:href="#DejaVuSans-44" transform="translate(1558.734375 0)"/>
     <use xlink:href="#DejaVuSans-3" transform="translate(1620.015625 0)"/>
     <use xlink:href="#DejaVuSans-50" transform="translate(1651.796875 0)"/>
     <use xlink:href="#DejaVuSans-48" transform="translate(1749.203125 0)"/>
     <use xlink:href="#DejaVuSans-44" transform="translate(1810.734375 0)"/>
     <use xlink:href="#DejaVuSans-56" transform="translate(1872.015625 0)"/>
     <use xlink:href="#DejaVuSans-58" transform="translate(1924.109375 0)"/>
     <use xlink:href="#DejaVuSans-55" transform="translate(1987.484375 0)"/>
     <use xlink:href="#DejaVuSans-48" transform="translate(2026.390625 0)"/>
     <use xlink:href="#DejaVuSans-3" transform="translate(2087.921875 0)"/>
     <use xlink:href="#DejaVuSans-52" transform="translate(2119.703125 0)"/>
     <use xlink:href="#DejaVuSans-49" transform="translate(2180.890625 0)"/>
     <use xlink:href="#DejaVuSans-3" transform="translate(2216.09375 0)"/>
     <use xlink:href="#DejaVuSans-46" transform="translate(2247.875 0)"/>
     <use xlink:href="#DejaVuSans-44" transform="translate(2302.859375 0)"/>
     <use xlink:href="#DejaVuSans-58" transform="translate(2364.140625 0)"/>
     <use xlink:href="#DejaVuSans-56" transform="translate(2427.515625 0)"/>
     <use xlink:href="#DejaVuSans-44" transform="translate(2479.609375 0)"/>
     <use xlink:href="#DejaVuSans-4f" transform="translate(2540.890625 0)"/>
     <use xlink:href="#DejaVuSans-3" transform="translate(2568.671875 0)"/>
     <use xlink:href="#DejaVuSans-48" transform="translate(2600.453125 0)"/>
     <use xlink:href="#DejaVuSans-13ae" transform="translate(2661.984375 0)"/>
     <use xlink:href="#DejaVuSans-48" transform="translate(2730.875 0)"/>
     <use xlink:href="#DejaVuSans-46" transform="translate(2792.40625 0)"/>
     <use xlink:href="#DejaVuSans-57" transform="translate(2847.390625 0)"/>
     <use xlink:href="#DejaVuSans-c" transform="translate(2886.59375 0)"/>
    </g>
   </g>
   <g id="legend_1">
    <g id="patch_35">
     <path d="M 429.770312 416.39 
L 449.770312 416.39 
L 449.770312 409.39 
L 429.770312 409.39 
z
" style="fill: #2a78d6"/>
    </g>
    <g id="text_19">
     <!-- safety (n=22 sources) -->
     <g style="fill: #0b0b0b" transform="translate(457.770312 416.39) scale(0.1 -0.1)">
      <defs>
       <path id="DejaVuSans-20" d="M 678 2906 
L 4684 2906 
L 4684 2381 
L 678 2381 
L 678 2906 
z
M 678 1631 
L 4684 1631 
L 4684 1100 
L 678 1100 
L 678 1631 
z
" transform="scale(0.015625)"/>
      </defs>
      <use xlink:href="#DejaVuSans-56"/>
      <use xlink:href="#DejaVuSans-44" transform="translate(52.09375 0)"/>
      <use xlink:href="#DejaVuSans-49" transform="translate(113.375 0)"/>
      <use xlink:href="#DejaVuSans-48" transform="translate(148.578125 0)"/>
      <use xlink:href="#DejaVuSans-57" transform="translate(210.109375 0)"/>
      <use xlink:href="#DejaVuSans-5c" transform="translate(249.3125 0)"/>
      <use xlink:href="#DejaVuSans-3" transform="translate(308.5 0)"/>
      <use xlink:href="#DejaVuSans-b" transform="translate(340.28125 0)"/>
      <use xlink:href="#DejaVuSans-51" transform="translate(379.296875 0)"/>
      <use xlink:href="#DejaVuSans-20" transform="translate(442.671875 0)"/>
      <use xlink:href="#DejaVuSans-15" transform="translate(526.46875 0)"/>
      <use xlink:href="#DejaVuSans-15" transform="translate(590.09375 0)"/>
      <use xlink:href="#DejaVuSans-3" transform="translate(653.71875 0)"/>
      <use xlink:href="#DejaVuSans-56" transform="translate(685.5 0)"/>
      <use xlink:href="#DejaVuSans-52" transform="translate(737.59375 0)"/>
      <use xlink:href="#DejaVuSans-58" transform="translate(798.78125 0)"/>
      <use xlink:href="#DejaVuSans-55" transform="translate(862.15625 0)"/>
      <use xlink:href="#DejaVuSans-46" transform="translate(901.0625 0)"/>
      <use xlink:href="#DejaVuSans-48" transform="translate(956.046875 0)"/>
      <use xlink:href="#DejaVuSans-56" transform="translate(1017.578125 0)"/>
      <use xlink:href="#DejaVuSans-c" transform="translate(1069.671875 0)"/>
     </g>
    </g>
    <g id="patch_36">
     <path d="M 429.770312 431.390781 
L 449.770312 431.390781 
L 449.770312 424.390781 
L 429.770312 424.390781 
z
" style="fill: #eda100"/>
    </g>
    <g id="text_20">
     <!-- safety_adjacent (n=1 sources) -->
     <g style="fill: #0b0b0b" transform="translate(457.770312 431.390781) scale(0.1 -0.1)">
      <defs>
       <path id="DejaVuSans-42" d="M 3263 -1063 
L 3263 -1509 
L -63 -1509 
L -63 -1063 
L 3263 -1063 
z
" transform="scale(0.015625)"/>
       <path id="DejaVuSans-4d" d="M 603 3500 
L 1178 3500 
L 1178 -63 
Q 1178 -731 923 -1031 
Q 669 -1331 103 -1331 
L -116 -1331 
L -116 -844 
L 38 -844 
Q 366 -844 484 -692 
Q 603 -541 603 -63 
L 603 3500 
z
M 603 4863 
L 1178 4863 
L 1178 4134 
L 603 4134 
L 603 4863 
z
" transform="scale(0.015625)"/>
      </defs>
      <use xlink:href="#DejaVuSans-56"/>
      <use xlink:href="#DejaVuSans-44" transform="translate(52.09375 0)"/>
      <use xlink:href="#DejaVuSans-49" transform="translate(113.375 0)"/>
      <use xlink:href="#DejaVuSans-48" transform="translate(148.578125 0)"/>
      <use xlink:href="#DejaVuSans-57" transform="translate(210.109375 0)"/>
      <use xlink:href="#DejaVuSans-5c" transform="translate(249.3125 0)"/>
      <use xlink:href="#DejaVuSans-42" transform="translate(308.5 0)"/>
      <use xlink:href="#DejaVuSans-44" transform="translate(358.5 0)"/>
      <use xlink:href="#DejaVuSans-47" transform="translate(419.78125 0)"/>
      <use xlink:href="#DejaVuSans-4d" transform="translate(483.265625 0)"/>
      <use xlink:href="#DejaVuSans-44" transform="translate(511.046875 0)"/>
      <use xlink:href="#DejaVuSans-46" transform="translate(572.328125 0)"/>
      <use xlink:href="#DejaVuSans-48" transform="translate(627.3125 0)"/>
      <use xlink:href="#DejaVuSans-51" transform="translate(688.84375 0)"/>
      <use xlink:href="#DejaVuSans-57" transform="translate(752.21875 0)"/>
      <use xlink:href="#DejaVuSans-3" transform="translate(791.421875 0)"/>
      <use xlink:href="#DejaVuSans-b" transform="translate(823.203125 0)"/>
      <use xlink:href="#DejaVuSans-51" transform="translate(862.21875 0)"/>
      <use xlink:href="#DejaVuSans-20" transform="translate(925.59375 0)"/>
      <use xlink:href="#DejaVuSans-14" transform="translate(1009.390625 0)"/>
      <use xlink:href="#DejaVuSans-3" transform="translate(1073.015625 0)"/>
      <use xlink:href="#DejaVuSans-56" transform="translate(1104.796875 0)"/>
      <use xlink:href="#DejaVuSans-52" transform="translate(1156.890625 0)"/>
      <use xlink:href="#DejaVuSans-58" transform="translate(1218.078125 0)"/>
      <use xlink:href="#DejaVuSans-55" transform="translate(1281.453125 0)"/>
      <use xlink:href="#DejaVuSans-46" transform="translate(1320.359375 0)"/>
      <use xlink:href="#DejaVuSans-48" transform="translate(1375.34375 0)"/>
      <use xlink:href="#DejaVuSans-56" transform="translate(1436.875 0)"/>
      <use xlink:href="#DejaVuSans-c" transform="translate(1488.96875 0)"/>
     </g>
    </g>
    <g id="patch_37">
     <path d="M 429.770312 446.391563 
L 449.770312 446.391563 
L 449.770312 439.391563 
L 429.770312 439.391563 
z
" style="fill: #1baf7a"/>
    </g>
    <g id="text_21">
     <!-- non_safety (n=14 sources) -->
     <g style="fill: #0b0b0b" transform="translate(457.770312 446.391563) scale(0.1 -0.1)">
      <use xlink:href="#DejaVuSans-51"/>
      <use xlink:href="#DejaVuSans-52" transform="translate(63.375 0)"/>
      <use xlink:href="#DejaVuSans-51" transform="translate(124.5625 0)"/>
      <use xlink:href="#DejaVuSans-42" transform="translate(187.9375 0)"/>
      <use xlink:href="#DejaVuSans-56" transform="translate(237.9375 0)"/>
      <use xlink:href="#DejaVuSans-44" transform="translate(290.03125 0)"/>
      <use xlink:href="#DejaVuSans-49" transform="translate(351.3125 0)"/>
      <use xlink:href="#DejaVuSans-48" transform="translate(386.515625 0)"/>
      <use xlink:href="#DejaVuSans-57" transform="translate(448.046875 0)"/>
      <use xlink:href="#DejaVuSans-5c" transform="translate(487.25 0)"/>
      <use xlink:href="#DejaVuSans-3" transform="translate(546.4375 0)"/>
      <use xlink:href="#DejaVuSans-b" transform="translate(578.21875 0)"/>
      <use xlink:href="#DejaVuSans-51" transform="translate(617.234375 0)"/>
      <use xlink:href="#DejaVuSans-20" transform="translate(680.609375 0)"/>
      <use xlink:href="#DejaVuSans-14" transform="translate(764.40625 0)"/>
      <use xlink:href="#DejaVuSans-17" transform="translate(828.03125 0)"/>
      <use xlink:href="#DejaVuSans-3" transform="translate(891.65625 0)"/>
      <use xlink:href="#DejaVuSans-56" transform="translate(923.4375 0)"/>
      <use xlink:href="#DejaVuSans-52" transform="translate(975.53125 0)"/>
      <use xlink:href="#DejaVuSans-58" transform="translate(1036.71875 0)"/>
      <use xlink:href="#DejaVuSans-55" transform="translate(1100.09375 0)"/>
      <use xlink:href="#DejaVuSans-46" transform="translate(1139 0)"/>
      <use xlink:href="#DejaVuSans-48" transform="translate(1193.984375 0)"/>
      <use xlink:href="#DejaVuSans-56" transform="translate(1255.515625 0)"/>
      <use xlink:href="#DejaVuSans-c" transform="translate(1307.609375 0)"/>
     </g>
    </g>
   </g>
  </g>
 </g>
 <defs>
  <clipPath id="p1ef0608526">
   <rect x="289.51875" y="37.922578" width="330.05" height="419.871328"/>
  </clipPath>
 </defs>
</svg>
